<svg width="890" height="152" viewBox="0 0 890 152" fill="none" xmlns="http://www.w3.org/2000/svg">
<rect x="750.4" y="103.9" width="139.2" height="47.2" rx="7.6" stroke="white" stroke-opacity="0.7" stroke-width="0.8"/>
<path d="M797.306 132.654C794.506 132.654 792.602 130.568 792.602 127.488C792.602 124.408 794.534 122.308 797.362 122.308C799.518 122.308 801.212 123.61 801.618 125.598H800.54C800.12 124.156 798.888 123.274 797.32 123.274C795.122 123.274 793.652 124.954 793.652 127.488C793.652 130.008 795.122 131.688 797.32 131.688C798.902 131.688 800.162 130.834 800.596 129.49H801.674C801.212 131.38 799.462 132.654 797.306 132.654ZM803.851 129.112C803.851 127.04 805.307 125.542 807.295 125.542C809.283 125.542 810.739 127.04 810.739 129.112C810.739 131.17 809.283 132.668 807.295 132.668C805.307 132.668 803.851 131.17 803.851 129.112ZM804.831 129.098C804.831 130.694 805.839 131.8 807.295 131.8C808.737 131.8 809.759 130.694 809.759 129.098C809.759 127.53 808.737 126.41 807.295 126.41C805.839 126.41 804.831 127.53 804.831 129.098ZM814.37 132.5H813.404V125.724H814.244L814.384 126.9C814.832 126.032 815.728 125.542 816.708 125.542C818.57 125.542 819.34 126.648 819.34 128.356V132.5H818.374V128.566C818.374 126.984 817.66 126.424 816.54 126.424C815.154 126.424 814.37 127.432 814.37 128.958V132.5ZM823.94 132.5H822.988V126.536H821.63V125.724H822.988V123.582H823.94V125.724H825.298V126.536H823.94V132.5ZM829.512 132.668C828.07 132.668 827.216 131.856 827.216 130.666C827.216 129.42 828.168 128.636 829.75 128.51L831.99 128.328V128.104C831.99 126.774 831.192 126.354 830.198 126.354C829.022 126.354 828.322 126.886 828.322 127.796H827.44C827.44 126.424 828.56 125.542 830.226 125.542C831.794 125.542 832.942 126.326 832.942 128.118V132.5H832.13L832.004 131.31C831.584 132.164 830.66 132.668 829.512 132.668ZM829.736 131.884C831.164 131.884 831.99 130.89 831.99 129.42V129.056L829.988 129.21C828.714 129.322 828.196 129.882 828.196 130.638C828.196 131.464 828.812 131.884 829.736 131.884ZM835.525 129.126C835.525 126.998 836.827 125.542 838.801 125.542C840.369 125.542 841.517 126.452 841.783 127.852H840.817C840.565 126.914 839.753 126.396 838.815 126.396C837.443 126.396 836.477 127.446 836.477 129.112C836.477 130.722 837.373 131.8 838.745 131.8C839.753 131.8 840.565 131.24 840.831 130.372H841.811C841.489 131.758 840.285 132.668 838.745 132.668C836.827 132.668 835.525 131.254 835.525 129.126ZM845.948 132.5H844.996V126.536H843.638V125.724H844.996V123.582H845.948V125.724H847.306V126.536H845.948V132.5Z" fill="white"/>
<rect x="500.4" y="104.4" width="139.2" height="47.2" rx="7.6" stroke="white" stroke-opacity="0.7" stroke-width="0.8"/>
<path d="M536.226 133H535.218V122.976H538.956C540.986 122.976 542.218 124.096 542.218 125.874C542.218 127.316 541.462 128.324 540.174 128.674L542.316 133H541.196L539.152 128.842H536.226V133ZM536.226 123.886V127.932H538.984C540.37 127.932 541.182 127.176 541.182 125.902C541.182 124.6 540.328 123.886 538.956 123.886H536.226ZM547.433 133.168C545.445 133.168 544.115 131.74 544.115 129.612C544.115 127.498 545.431 126.042 547.363 126.042C549.197 126.042 550.443 127.344 550.443 129.262V129.738H545.053C545.123 131.39 545.991 132.342 547.447 132.342C548.553 132.342 549.267 131.866 549.519 130.97H550.443C550.079 132.398 549.029 133.168 547.433 133.168ZM547.363 126.868C546.089 126.868 545.249 127.708 545.081 129.038H549.477C549.477 127.736 548.637 126.868 547.363 126.868ZM552.533 131.096H553.457C553.457 131.88 554.045 132.37 554.997 132.37C556.047 132.37 556.663 131.922 556.663 131.194C556.663 130.634 556.383 130.312 555.585 130.116L554.423 129.822C553.247 129.528 552.673 128.912 552.673 127.988C552.673 126.798 553.667 126.042 555.123 126.042C556.551 126.042 557.475 126.826 557.517 128.086H556.579C556.551 127.302 556.005 126.84 555.095 126.84C554.143 126.84 553.611 127.246 553.611 127.974C553.611 128.492 553.975 128.856 554.717 129.038L555.879 129.332C557.055 129.626 557.587 130.172 557.587 131.152C557.587 132.37 556.551 133.168 555.011 133.168C553.485 133.168 552.533 132.356 552.533 131.096ZM559.822 129.612C559.822 127.54 561.278 126.042 563.266 126.042C565.254 126.042 566.71 127.54 566.71 129.612C566.71 131.67 565.254 133.168 563.266 133.168C561.278 133.168 559.822 131.67 559.822 129.612ZM560.802 129.598C560.802 131.194 561.81 132.3 563.266 132.3C564.708 132.3 565.73 131.194 565.73 129.598C565.73 128.03 564.708 126.91 563.266 126.91C561.81 126.91 560.802 128.03 560.802 129.598ZM573.971 126.224H574.937V133H574.097L573.971 131.852C573.593 132.636 572.655 133.168 571.591 133.168C569.995 133.168 569.127 132.076 569.127 130.424V126.21H570.107V130.116C570.107 131.726 570.821 132.3 571.899 132.3C573.201 132.3 573.971 131.432 573.971 129.822V126.224ZM581.611 126.14V127.008H581.079C579.833 127.008 579.035 127.848 579.035 129.136V133H578.069V126.224H578.979L579.049 127.274C579.315 126.546 580.029 126.07 580.981 126.07C581.191 126.07 581.373 126.084 581.611 126.14ZM583.279 129.626C583.279 127.498 584.581 126.042 586.555 126.042C588.123 126.042 589.271 126.952 589.537 128.352H588.571C588.319 127.414 587.507 126.896 586.569 126.896C585.197 126.896 584.231 127.946 584.231 129.612C584.231 131.222 585.127 132.3 586.499 132.3C587.507 132.3 588.319 131.74 588.585 130.872H589.565C589.243 132.258 588.039 133.168 586.499 133.168C584.581 133.168 583.279 131.754 583.279 129.626ZM594.991 133.168C593.003 133.168 591.673 131.74 591.673 129.612C591.673 127.498 592.989 126.042 594.921 126.042C596.755 126.042 598.001 127.344 598.001 129.262V129.738H592.611C592.681 131.39 593.549 132.342 595.005 132.342C596.111 132.342 596.825 131.866 597.077 130.97H598.001C597.637 132.398 596.587 133.168 594.991 133.168ZM594.921 126.868C593.647 126.868 592.807 127.708 592.639 129.038H597.035C597.035 127.736 596.195 126.868 594.921 126.868ZM600.091 131.096H601.015C601.015 131.88 601.603 132.37 602.555 132.37C603.605 132.37 604.221 131.922 604.221 131.194C604.221 130.634 603.941 130.312 603.143 130.116L601.981 129.822C600.805 129.528 600.231 128.912 600.231 127.988C600.231 126.798 601.225 126.042 602.681 126.042C604.109 126.042 605.033 126.826 605.075 128.086H604.137C604.109 127.302 603.563 126.84 602.653 126.84C601.701 126.84 601.169 127.246 601.169 127.974C601.169 128.492 601.533 128.856 602.275 129.038L603.437 129.332C604.613 129.626 605.145 130.172 605.145 131.152C605.145 132.37 604.109 133.168 602.569 133.168C601.043 133.168 600.091 132.356 600.091 131.096Z" fill="white"/>
<rect x="250.4" y="104.4" width="139.2" height="47.2" rx="7.6" stroke="white" stroke-opacity="0.7" stroke-width="0.8"/>
<path d="M295.04 129.318H292.226V133H291.218V122.976H295.04C296.972 122.976 298.19 124.236 298.19 126.126C298.19 127.946 296.958 129.318 295.04 129.318ZM294.9 123.886H292.226V128.408H294.844C296.3 128.408 297.14 127.484 297.14 126.112C297.14 124.726 296.286 123.886 294.9 123.886ZM302.4 133.168C300.958 133.168 300.104 132.356 300.104 131.166C300.104 129.92 301.056 129.136 302.638 129.01L304.878 128.828V128.604C304.878 127.274 304.08 126.854 303.086 126.854C301.91 126.854 301.21 127.386 301.21 128.296H300.328C300.328 126.924 301.448 126.042 303.114 126.042C304.682 126.042 305.83 126.826 305.83 128.618V133H305.018L304.892 131.81C304.472 132.664 303.548 133.168 302.4 133.168ZM302.624 132.384C304.052 132.384 304.878 131.39 304.878 129.92V129.556L302.876 129.71C301.602 129.822 301.084 130.382 301.084 131.138C301.084 131.964 301.7 132.384 302.624 132.384ZM312.431 126.14V127.008H311.899C310.653 127.008 309.855 127.848 309.855 129.136V133H308.889V126.224H309.799L309.869 127.274C310.135 126.546 310.849 126.07 311.801 126.07C312.011 126.07 312.193 126.084 312.431 126.14ZM316.662 133H315.71V127.036H314.352V126.224H315.71V124.082H316.662V126.224H318.02V127.036H316.662V133ZM321.364 133H320.398V126.224H321.238L321.378 127.4C321.826 126.532 322.722 126.042 323.702 126.042C325.564 126.042 326.334 127.148 326.334 128.856V133H325.368V129.066C325.368 127.484 324.654 126.924 323.534 126.924C322.148 126.924 321.364 127.932 321.364 129.458V133ZM332.221 133.168C330.233 133.168 328.903 131.74 328.903 129.612C328.903 127.498 330.219 126.042 332.151 126.042C333.985 126.042 335.231 127.344 335.231 129.262V129.738H329.841C329.911 131.39 330.779 132.342 332.235 132.342C333.341 132.342 334.055 131.866 334.307 130.97H335.231C334.867 132.398 333.817 133.168 332.221 133.168ZM332.151 126.868C330.877 126.868 330.037 127.708 329.869 129.038H334.265C334.265 127.736 333.425 126.868 332.151 126.868ZM341.438 126.14V127.008H340.906C339.66 127.008 338.862 127.848 338.862 129.136V133H337.896V126.224H338.806L338.876 127.274C339.142 126.546 339.856 126.07 340.808 126.07C341.018 126.07 341.2 126.084 341.438 126.14ZM343.268 131.096H344.192C344.192 131.88 344.78 132.37 345.732 132.37C346.782 132.37 347.398 131.922 347.398 131.194C347.398 130.634 347.118 130.312 346.32 130.116L345.158 129.822C343.982 129.528 343.408 128.912 343.408 127.988C343.408 126.798 344.402 126.042 345.858 126.042C347.286 126.042 348.21 126.826 348.252 128.086H347.314C347.286 127.302 346.74 126.84 345.83 126.84C344.878 126.84 344.346 127.246 344.346 127.974C344.346 128.492 344.71 128.856 345.452 129.038L346.614 129.332C347.79 129.626 348.322 130.172 348.322 131.152C348.322 132.37 347.286 133.168 345.746 133.168C344.22 133.168 343.268 132.356 343.268 131.096Z" fill="white"/>
<line x1="70.4" y1="71.6" x2="819.6" y2="71.6" stroke="white" stroke-opacity="0.7" stroke-width="0.8" stroke-linecap="round"/>
<line x1="444.6" y1="72" x2="444.6" y2="48" stroke="white" stroke-opacity="0.7" stroke-width="0.8"/>
<path d="M70.1 103.5C70.1 103.721 70.2791 103.9 70.5 103.9C70.7209 103.9 70.9 103.721 70.9 103.5H70.5H70.1ZM70.5 103.5H70.9V71.5H70.5H70.1V103.5H70.5Z" fill="white" fill-opacity="0.7"/>
<path d="M569.6 104C569.6 104.221 569.779 104.4 570 104.4C570.221 104.4 570.4 104.221 570.4 104H570H569.6ZM570 104H570.4V72H570H569.6V104H570Z" fill="white" fill-opacity="0.7"/>
<path d="M819.2 103.5C819.2 103.721 819.379 103.9 819.6 103.9C819.821 103.9 820 103.721 820 103.5H819.6H819.2ZM819.6 103.5H820V71.5H819.6H819.2V103.5H819.6Z" fill="white" fill-opacity="0.7"/>
<path d="M319.6 104C319.6 104.221 319.779 104.4 320 104.4C320.221 104.4 320.4 104.221 320.4 104H320H319.6ZM320.4 72V71.6H319.6V72H320H320.4ZM320 104H320.4V72H320H319.6V104H320Z" fill="white" fill-opacity="0.7"/>
<rect x="0.4" y="103.9" width="139.2" height="47.2" rx="7.6" stroke="white" stroke-opacity="0.7" stroke-width="0.8"/>
<path d="M37.616 125.08C37.616 123.4 38.96 122.294 40.976 122.294C42.782 122.294 43.972 123.302 44.126 124.982H43.104C42.992 123.848 42.222 123.204 40.962 123.204C39.548 123.204 38.624 123.932 38.624 125.066C38.624 125.948 39.142 126.508 40.192 126.774L41.914 127.194C43.482 127.572 44.294 128.468 44.294 129.826C44.294 131.562 42.95 132.668 40.878 132.668C38.932 132.668 37.616 131.646 37.49 130.008H38.526C38.582 131.058 39.506 131.744 40.878 131.744C42.348 131.744 43.286 131.03 43.286 129.882C43.286 128.986 42.782 128.398 41.704 128.146L40.01 127.726C38.442 127.348 37.616 126.452 37.616 125.08ZM46.5407 129.112C46.5407 127.04 47.9967 125.542 49.9847 125.542C51.9727 125.542 53.4287 127.04 53.4287 129.112C53.4287 131.17 51.9727 132.668 49.9847 132.668C47.9967 132.668 46.5407 131.17 46.5407 129.112ZM47.5207 129.098C47.5207 130.694 48.5287 131.8 49.9847 131.8C51.4267 131.8 52.4487 130.694 52.4487 129.098C52.4487 127.53 51.4267 126.41 49.9847 126.41C48.5287 126.41 47.5207 127.53 47.5207 129.098ZM57.1017 132.5H56.1357V122.294H57.1017V132.5ZM65.0362 125.724H66.0022V132.5H65.1622L65.0362 131.352C64.6582 132.136 63.7202 132.668 62.6562 132.668C61.0602 132.668 60.1922 131.576 60.1922 129.924V125.71H61.1722V129.616C61.1722 131.226 61.8862 131.8 62.9642 131.8C64.2662 131.8 65.0362 130.932 65.0362 129.322V125.724ZM70.6885 132.5H69.7365V126.536H68.3785V125.724H69.7365V123.582H70.6885V125.724H72.0465V126.536H70.6885V132.5ZM74.9004 123.862C74.5084 123.862 74.1864 123.54 74.1864 123.148C74.1864 122.756 74.5084 122.42 74.9004 122.42C75.2924 122.42 75.6284 122.756 75.6284 123.148C75.6284 123.54 75.2924 123.862 74.9004 123.862ZM74.4244 132.5V125.724H75.3904V132.5H74.4244ZM78.0489 129.112C78.0489 127.04 79.5049 125.542 81.4929 125.542C83.4809 125.542 84.9369 127.04 84.9369 129.112C84.9369 131.17 83.4809 132.668 81.4929 132.668C79.5049 132.668 78.0489 131.17 78.0489 129.112ZM79.0289 129.098C79.0289 130.694 80.0369 131.8 81.4929 131.8C82.9349 131.8 83.9569 130.694 83.9569 129.098C83.9569 127.53 82.9349 126.41 81.4929 126.41C80.0369 126.41 79.0289 127.53 79.0289 129.098ZM88.5679 132.5H87.6019V125.724H88.4419L88.5819 126.9C89.0299 126.032 89.9259 125.542 90.9059 125.542C92.7679 125.542 93.5379 126.648 93.5379 128.356V132.5H92.5719V128.566C92.5719 126.984 91.8579 126.424 90.7379 126.424C89.3519 126.424 88.5679 127.432 88.5679 128.958V132.5ZM95.9272 130.596H96.8512C96.8512 131.38 97.4392 131.87 98.3912 131.87C99.4412 131.87 100.057 131.422 100.057 130.694C100.057 130.134 99.7772 129.812 98.9792 129.616L97.8172 129.322C96.6412 129.028 96.0672 128.412 96.0672 127.488C96.0672 126.298 97.0612 125.542 98.5172 125.542C99.9452 125.542 100.869 126.326 100.911 127.586H99.9732C99.9452 126.802 99.3992 126.34 98.4892 126.34C97.5372 126.34 97.0052 126.746 97.0052 127.474C97.0052 127.992 97.3692 128.356 98.1112 128.538L99.2732 128.832C100.449 129.126 100.981 129.672 100.981 130.652C100.981 131.87 99.9452 132.668 98.4052 132.668C96.8792 132.668 95.9272 131.856 95.9272 130.596Z" fill="white"/>
<rect x="375.4" y="0.4" width="139.2" height="47.2" rx="7.6" stroke="white" stroke-opacity="0.7" stroke-width="0.8"/>
<path d="M426.226 29H425.218V18.976H426.226V23.442H431.644V18.976H432.638V29H431.644V24.38H426.226V29ZM435.523 25.612C435.523 23.54 436.979 22.042 438.967 22.042C440.955 22.042 442.411 23.54 442.411 25.612C442.411 27.67 440.955 29.168 438.967 29.168C436.979 29.168 435.523 27.67 435.523 25.612ZM436.503 25.598C436.503 27.194 437.511 28.3 438.967 28.3C440.409 28.3 441.431 27.194 441.431 25.598C441.431 24.03 440.409 22.91 438.967 22.91C437.511 22.91 436.503 24.03 436.503 25.598ZM446.042 29H445.076V22.224H445.916L446.028 23.19C446.364 22.476 447.12 22.042 448.072 22.042C449.136 22.042 449.934 22.602 450.256 23.484C450.564 22.602 451.39 22.042 452.482 22.042C453.952 22.042 454.918 22.994 454.918 24.562V29H453.98V24.758C453.98 23.596 453.336 22.91 452.3 22.91C451.166 22.91 450.494 23.764 450.494 24.814V29H449.542V24.744C449.542 23.596 448.884 22.924 447.862 22.924C446.728 22.924 446.042 23.764 446.042 24.8V29ZM460.823 29.168C458.835 29.168 457.505 27.74 457.505 25.612C457.505 23.498 458.821 22.042 460.753 22.042C462.587 22.042 463.833 23.344 463.833 25.262V25.738H458.443C458.513 27.39 459.381 28.342 460.837 28.342C461.943 28.342 462.657 27.866 462.909 26.97H463.833C463.469 28.398 462.419 29.168 460.823 29.168ZM460.753 22.868C459.479 22.868 458.639 23.708 458.471 25.038H462.867C462.867 23.736 462.027 22.868 460.753 22.868Z" fill="white"/>
</svg>
