<svg width="720" height="144" viewBox="0 0 720 144" fill="none" xmlns="http://www.w3.org/2000/svg">
<rect x="600.4" y="100.4" width="119.2" height="43.2" rx="7.6" stroke="white" stroke-opacity="0.7" stroke-width="0.8"/>
<path d="M638.927 127.143C636.327 127.143 634.559 125.206 634.559 122.346C634.559 119.486 636.353 117.536 638.979 117.536C640.981 117.536 642.554 118.745 642.931 120.591H641.93C641.54 119.252 640.396 118.433 638.94 118.433C636.899 118.433 635.534 119.993 635.534 122.346C635.534 124.686 636.899 126.246 638.94 126.246C640.409 126.246 641.579 125.453 641.982 124.205H642.983C642.554 125.96 640.929 127.143 638.927 127.143ZM645.005 123.854C645.005 121.93 646.357 120.539 648.203 120.539C650.049 120.539 651.401 121.93 651.401 123.854C651.401 125.765 650.049 127.156 648.203 127.156C646.357 127.156 645.005 125.765 645.005 123.854ZM645.915 123.841C645.915 125.323 646.851 126.35 648.203 126.35C649.542 126.35 650.491 125.323 650.491 123.841C650.491 122.385 649.542 121.345 648.203 121.345C646.851 121.345 645.915 122.385 645.915 123.841ZM654.772 127H653.875V120.708H654.655L654.785 121.8C655.201 120.994 656.033 120.539 656.943 120.539C658.672 120.539 659.387 121.566 659.387 123.152V127H658.49V123.347C658.49 121.878 657.827 121.358 656.787 121.358C655.5 121.358 654.772 122.294 654.772 123.711V127ZM663.658 127H662.774V121.462H661.513V120.708H662.774V118.719H663.658V120.708H664.919V121.462H663.658V127ZM668.833 127.156C667.494 127.156 666.701 126.402 666.701 125.297C666.701 124.14 667.585 123.412 669.054 123.295L671.134 123.126V122.918C671.134 121.683 670.393 121.293 669.47 121.293C668.378 121.293 667.728 121.787 667.728 122.632H666.909C666.909 121.358 667.949 120.539 669.496 120.539C670.952 120.539 672.018 121.267 672.018 122.931V127H671.264L671.147 125.895C670.757 126.688 669.899 127.156 668.833 127.156ZM669.041 126.428C670.367 126.428 671.134 125.505 671.134 124.14V123.802L669.275 123.945C668.092 124.049 667.611 124.569 667.611 125.271C667.611 126.038 668.183 126.428 669.041 126.428ZM674.416 123.867C674.416 121.891 675.625 120.539 677.458 120.539C678.914 120.539 679.98 121.384 680.227 122.684H679.33C679.096 121.813 678.342 121.332 677.471 121.332C676.197 121.332 675.3 122.307 675.3 123.854C675.3 125.349 676.132 126.35 677.406 126.35C678.342 126.35 679.096 125.83 679.343 125.024H680.253C679.954 126.311 678.836 127.156 677.406 127.156C675.625 127.156 674.416 125.843 674.416 123.867ZM684.095 127H683.211V121.462H681.95V120.708H683.211V118.719H684.095V120.708H685.356V121.462H684.095V127Z" fill="white"/>
<rect x="400.4" y="100.4" width="119.2" height="43.2" rx="7.6" stroke="white" stroke-opacity="0.7" stroke-width="0.8"/>
<path d="M428.067 127H427.131V117.692H430.602C432.487 117.692 433.631 118.732 433.631 120.383C433.631 121.722 432.929 122.658 431.733 122.983L433.722 127H432.682L430.784 123.139H428.067V127ZM428.067 118.537V122.294H430.628C431.915 122.294 432.669 121.592 432.669 120.409C432.669 119.2 431.876 118.537 430.602 118.537H428.067ZM438.473 127.156C436.627 127.156 435.392 125.83 435.392 123.854C435.392 121.891 436.614 120.539 438.408 120.539C440.111 120.539 441.268 121.748 441.268 123.529V123.971H436.263C436.328 125.505 437.134 126.389 438.486 126.389C439.513 126.389 440.176 125.947 440.41 125.115H441.268C440.93 126.441 439.955 127.156 438.473 127.156ZM438.408 121.306C437.225 121.306 436.445 122.086 436.289 123.321H440.371C440.371 122.112 439.591 121.306 438.408 121.306ZM443.21 125.232H444.068C444.068 125.96 444.614 126.415 445.498 126.415C446.473 126.415 447.045 125.999 447.045 125.323C447.045 124.803 446.785 124.504 446.044 124.322L444.965 124.049C443.873 123.776 443.34 123.204 443.34 122.346C443.34 121.241 444.263 120.539 445.615 120.539C446.941 120.539 447.799 121.267 447.838 122.437H446.967C446.941 121.709 446.434 121.28 445.589 121.28C444.705 121.28 444.211 121.657 444.211 122.333C444.211 122.814 444.549 123.152 445.238 123.321L446.317 123.594C447.409 123.867 447.903 124.374 447.903 125.284C447.903 126.415 446.941 127.156 445.511 127.156C444.094 127.156 443.21 126.402 443.21 125.232ZM449.977 123.854C449.977 121.93 451.329 120.539 453.175 120.539C455.021 120.539 456.373 121.93 456.373 123.854C456.373 125.765 455.021 127.156 453.175 127.156C451.329 127.156 449.977 125.765 449.977 123.854ZM450.887 123.841C450.887 125.323 451.823 126.35 453.175 126.35C454.514 126.35 455.463 125.323 455.463 123.841C455.463 122.385 454.514 121.345 453.175 121.345C451.823 121.345 450.887 122.385 450.887 123.841ZM463.116 120.708H464.013V127H463.233L463.116 125.934C462.765 126.662 461.894 127.156 460.906 127.156C459.424 127.156 458.618 126.142 458.618 124.608V120.695H459.528V124.322C459.528 125.817 460.191 126.35 461.192 126.35C462.401 126.35 463.116 125.544 463.116 124.049V120.708ZM470.21 120.63V121.436H469.716C468.559 121.436 467.818 122.216 467.818 123.412V127H466.921V120.708H467.766L467.831 121.683C468.078 121.007 468.741 120.565 469.625 120.565C469.82 120.565 469.989 120.578 470.21 120.63ZM471.759 123.867C471.759 121.891 472.968 120.539 474.801 120.539C476.257 120.539 477.323 121.384 477.57 122.684H476.673C476.439 121.813 475.685 121.332 474.814 121.332C473.54 121.332 472.643 122.307 472.643 123.854C472.643 125.349 473.475 126.35 474.749 126.35C475.685 126.35 476.439 125.83 476.686 125.024H477.596C477.297 126.311 476.179 127.156 474.749 127.156C472.968 127.156 471.759 125.843 471.759 123.867ZM482.634 127.156C480.788 127.156 479.553 125.83 479.553 123.854C479.553 121.891 480.775 120.539 482.569 120.539C484.272 120.539 485.429 121.748 485.429 123.529V123.971H480.424C480.489 125.505 481.295 126.389 482.647 126.389C483.674 126.389 484.337 125.947 484.571 125.115H485.429C485.091 126.441 484.116 127.156 482.634 127.156ZM482.569 121.306C481.386 121.306 480.606 122.086 480.45 123.321H484.532C484.532 122.112 483.752 121.306 482.569 121.306ZM487.37 125.232H488.228C488.228 125.96 488.774 126.415 489.658 126.415C490.633 126.415 491.205 125.999 491.205 125.323C491.205 124.803 490.945 124.504 490.204 124.322L489.125 124.049C488.033 123.776 487.5 123.204 487.5 122.346C487.5 121.241 488.423 120.539 489.775 120.539C491.101 120.539 491.959 121.267 491.998 122.437H491.127C491.101 121.709 490.594 121.28 489.749 121.28C488.865 121.28 488.371 121.657 488.371 122.333C488.371 122.814 488.709 123.152 489.398 123.321L490.477 123.594C491.569 123.867 492.063 124.374 492.063 125.284C492.063 126.415 491.101 127.156 489.671 127.156C488.254 127.156 487.37 126.402 487.37 125.232Z" fill="white"/>
<rect x="200.4" y="100.4" width="119.2" height="43.2" rx="7.6" stroke="white" stroke-opacity="0.7" stroke-width="0.8"/>
<path d="M234.68 123.581H232.067V127H231.131V117.692H234.68C236.474 117.692 237.605 118.862 237.605 120.617C237.605 122.307 236.461 123.581 234.68 123.581ZM234.55 118.537H232.067V122.736H234.498C235.85 122.736 236.63 121.878 236.63 120.604C236.63 119.317 235.837 118.537 234.55 118.537ZM241.514 127.156C240.175 127.156 239.382 126.402 239.382 125.297C239.382 124.14 240.266 123.412 241.735 123.295L243.815 123.126V122.918C243.815 121.683 243.074 121.293 242.151 121.293C241.059 121.293 240.409 121.787 240.409 122.632H239.59C239.59 121.358 240.63 120.539 242.177 120.539C243.633 120.539 244.699 121.267 244.699 122.931V127H243.945L243.828 125.895C243.438 126.688 242.58 127.156 241.514 127.156ZM241.722 126.428C243.048 126.428 243.815 125.505 243.815 124.14V123.802L241.956 123.945C240.773 124.049 240.292 124.569 240.292 125.271C240.292 126.038 240.864 126.428 241.722 126.428ZM250.828 120.63V121.436H250.334C249.177 121.436 248.436 122.216 248.436 123.412V127H247.539V120.708H248.384L248.449 121.683C248.696 121.007 249.359 120.565 250.243 120.565C250.438 120.565 250.607 120.578 250.828 120.63ZM254.758 127H253.874V121.462H252.613V120.708H253.874V118.719H254.758V120.708H256.019V121.462H254.758V127ZM259.124 127H258.227V120.708H259.007L259.137 121.8C259.553 120.994 260.385 120.539 261.295 120.539C263.024 120.539 263.739 121.566 263.739 123.152V127H262.842V123.347C262.842 121.878 262.179 121.358 261.139 121.358C259.852 121.358 259.124 122.294 259.124 123.711V127ZM269.206 127.156C267.36 127.156 266.125 125.83 266.125 123.854C266.125 121.891 267.347 120.539 269.141 120.539C270.844 120.539 272.001 121.748 272.001 123.529V123.971H266.996C267.061 125.505 267.867 126.389 269.219 126.389C270.246 126.389 270.909 125.947 271.143 125.115H272.001C271.663 126.441 270.688 127.156 269.206 127.156ZM269.141 121.306C267.958 121.306 267.178 122.086 267.022 123.321H271.104C271.104 122.112 270.324 121.306 269.141 121.306ZM277.764 120.63V121.436H277.27C276.113 121.436 275.372 122.216 275.372 123.412V127H274.475V120.708H275.32L275.385 121.683C275.632 121.007 276.295 120.565 277.179 120.565C277.374 120.565 277.543 120.578 277.764 120.63ZM279.463 125.232H280.321C280.321 125.96 280.867 126.415 281.751 126.415C282.726 126.415 283.298 125.999 283.298 125.323C283.298 124.803 283.038 124.504 282.297 124.322L281.218 124.049C280.126 123.776 279.593 123.204 279.593 122.346C279.593 121.241 280.516 120.539 281.868 120.539C283.194 120.539 284.052 121.267 284.091 122.437H283.22C283.194 121.709 282.687 121.28 281.842 121.28C280.958 121.28 280.464 121.657 280.464 122.333C280.464 122.814 280.802 123.152 281.491 123.321L282.57 123.594C283.662 123.867 284.156 124.374 284.156 125.284C284.156 126.415 283.194 127.156 281.764 127.156C280.347 127.156 279.463 126.402 279.463 125.232Z" fill="white"/>
<line x1="60.4" y1="67.6" x2="659.6" y2="67.6" stroke="white" stroke-opacity="0.8" stroke-width="0.8" stroke-linecap="round"/>
<line x1="359.6" y1="68" x2="359.6" y2="44" stroke="white" stroke-opacity="0.8" stroke-width="0.8"/>
<path d="M60.0004 99.5C60.0004 99.7209 60.1795 99.9 60.4004 99.9C60.6213 99.9 60.8004 99.7209 60.8004 99.5H60.4004H60.0004ZM60.4004 99.5H60.8004L60.8004 67.5H60.4004H60.0004L60.0004 99.5H60.4004Z" fill="white" fill-opacity="0.8"/>
<path d="M459.6 100C459.6 100.221 459.779 100.4 460 100.4C460.221 100.4 460.4 100.221 460.4 100H460H459.6ZM460 100H460.4V68H460H459.6V100H460Z" fill="white" fill-opacity="0.8"/>
<path d="M659.28 99.5C659.28 99.7209 659.459 99.9 659.68 99.9C659.901 99.9 660.08 99.7209 660.08 99.5H659.68H659.28ZM659.68 99.5H660.08V67.5H659.68H659.28V99.5H659.68Z" fill="white" fill-opacity="0.8"/>
<path d="M259.6 100C259.6 100.221 259.779 100.4 260 100.4C260.221 100.4 260.4 100.221 260.4 100H260H259.6ZM260.4 68V67.6H259.6V68H260H260.4ZM260 100H260.4V68H260H259.6V100H260Z" fill="white" fill-opacity="0.8"/>
<rect x="0.4" y="100.4" width="119.2" height="43.2" rx="7.6" stroke="white" stroke-opacity="0.7" stroke-width="0.8"/>
<path d="M30.572 120.11C30.572 118.55 31.82 117.523 33.692 117.523C35.369 117.523 36.474 118.459 36.617 120.019H35.668C35.564 118.966 34.849 118.368 33.679 118.368C32.366 118.368 31.508 119.044 31.508 120.097C31.508 120.916 31.989 121.436 32.964 121.683L34.563 122.073C36.019 122.424 36.773 123.256 36.773 124.517C36.773 126.129 35.525 127.156 33.601 127.156C31.794 127.156 30.572 126.207 30.455 124.686H31.417C31.469 125.661 32.327 126.298 33.601 126.298C34.966 126.298 35.837 125.635 35.837 124.569C35.837 123.737 35.369 123.191 34.368 122.957L32.795 122.567C31.339 122.216 30.572 121.384 30.572 120.11ZM38.8592 123.854C38.8592 121.93 40.2112 120.539 42.0572 120.539C43.9032 120.539 45.2552 121.93 45.2552 123.854C45.2552 125.765 43.9032 127.156 42.0572 127.156C40.2112 127.156 38.8592 125.765 38.8592 123.854ZM39.7692 123.841C39.7692 125.323 40.7052 126.35 42.0572 126.35C43.3962 126.35 44.3452 125.323 44.3452 123.841C44.3452 122.385 43.3962 121.345 42.0572 121.345C40.7052 121.345 39.7692 122.385 39.7692 123.841ZM48.6659 127H47.7689V117.523H48.6659V127ZM56.0336 120.708H56.9306V127H56.1506L56.0336 125.934C55.6826 126.662 54.8116 127.156 53.8236 127.156C52.3416 127.156 51.5356 126.142 51.5356 124.608V120.695H52.4456V124.322C52.4456 125.817 53.1086 126.35 54.1096 126.35C55.3186 126.35 56.0336 125.544 56.0336 124.049V120.708ZM61.2822 127H60.3982V121.462H59.1372V120.708H60.3982V118.719H61.2822V120.708H62.5432V121.462H61.2822V127ZM65.1932 118.979C64.8292 118.979 64.5302 118.68 64.5302 118.316C64.5302 117.952 64.8292 117.64 65.1932 117.64C65.5572 117.64 65.8692 117.952 65.8692 118.316C65.8692 118.68 65.5572 118.979 65.1932 118.979ZM64.7512 127V120.708H65.6482V127H64.7512ZM68.1168 123.854C68.1168 121.93 69.4688 120.539 71.3148 120.539C73.1608 120.539 74.5128 121.93 74.5128 123.854C74.5128 125.765 73.1608 127.156 71.3148 127.156C69.4688 127.156 68.1168 125.765 68.1168 123.854ZM69.0268 123.841C69.0268 125.323 69.9628 126.35 71.3148 126.35C72.6538 126.35 73.6028 125.323 73.6028 123.841C73.6028 122.385 72.6538 121.345 71.3148 121.345C69.9628 121.345 69.0268 122.385 69.0268 123.841ZM77.8845 127H76.9875V120.708H77.7675L77.8975 121.8C78.3135 120.994 79.1455 120.539 80.0555 120.539C81.7845 120.539 82.4995 121.566 82.4995 123.152V127H81.6025V123.347C81.6025 121.878 80.9395 121.358 79.8995 121.358C78.6125 121.358 77.8845 122.294 77.8845 123.711V127ZM84.7181 125.232H85.5761C85.5761 125.96 86.1221 126.415 87.0061 126.415C87.9811 126.415 88.5531 125.999 88.5531 125.323C88.5531 124.803 88.2931 124.504 87.5521 124.322L86.4731 124.049C85.3811 123.776 84.8481 123.204 84.8481 122.346C84.8481 121.241 85.7711 120.539 87.1231 120.539C88.4491 120.539 89.3071 121.267 89.3461 122.437H88.4751C88.4491 121.709 87.9421 121.28 87.0971 121.28C86.2131 121.28 85.7191 121.657 85.7191 122.333C85.7191 122.814 86.0571 123.152 86.7461 123.321L87.8251 123.594C88.9171 123.867 89.4111 124.374 89.4111 125.284C89.4111 126.415 88.4491 127.156 87.0191 127.156C85.6021 127.156 84.7181 126.402 84.7181 125.232Z" fill="white"/>
<rect x="300.4" y="0.4" width="119.2" height="43.2" rx="7.6" stroke="white" stroke-opacity="0.7" stroke-width="0.8"/>
<path d="M343.067 27H342.131V17.692H343.067V21.839H348.098V17.692H349.021V27H348.098V22.71H343.067V27ZM351.7 23.854C351.7 21.93 353.052 20.539 354.898 20.539C356.744 20.539 358.096 21.93 358.096 23.854C358.096 25.765 356.744 27.156 354.898 27.156C353.052 27.156 351.7 25.765 351.7 23.854ZM352.61 23.841C352.61 25.323 353.546 26.35 354.898 26.35C356.237 26.35 357.186 25.323 357.186 23.841C357.186 22.385 356.237 21.345 354.898 21.345C353.546 21.345 352.61 22.385 352.61 23.841ZM361.468 27H360.571V20.708H361.351L361.455 21.605C361.767 20.942 362.469 20.539 363.353 20.539C364.341 20.539 365.082 21.059 365.381 21.878C365.667 21.059 366.434 20.539 367.448 20.539C368.813 20.539 369.71 21.423 369.71 22.879V27H368.839V23.061C368.839 21.982 368.241 21.345 367.279 21.345C366.226 21.345 365.602 22.138 365.602 23.113V27H364.718V23.048C364.718 21.982 364.107 21.358 363.158 21.358C362.105 21.358 361.468 22.138 361.468 23.1V27ZM375.193 27.156C373.347 27.156 372.112 25.83 372.112 23.854C372.112 21.891 373.334 20.539 375.128 20.539C376.831 20.539 377.988 21.748 377.988 23.529V23.971H372.983C373.048 25.505 373.854 26.389 375.206 26.389C376.233 26.389 376.896 25.947 377.13 25.115H377.988C377.65 26.441 376.675 27.156 375.193 27.156ZM375.128 21.306C373.945 21.306 373.165 22.086 373.009 23.321H377.091C377.091 22.112 376.311 21.306 375.128 21.306Z" fill="white"/>
</svg>
