<svg width="320" height="339" viewBox="0 0 320 339" fill="none" xmlns="http://www.w3.org/2000/svg">
<rect x="0.4" y="219.4" width="319.2" height="43.2" rx="7.6" stroke="white" stroke-opacity="0.7" stroke-width="0.8"/>
<path d="M128.067 246H127.131V236.692H130.602C132.487 236.692 133.631 237.732 133.631 239.383C133.631 240.722 132.929 241.658 131.733 241.983L133.722 246H132.682L130.784 242.139H128.067V246ZM128.067 237.537V241.294H130.628C131.915 241.294 132.669 240.592 132.669 239.409C132.669 238.2 131.876 237.537 130.602 237.537H128.067ZM138.473 246.156C136.627 246.156 135.392 244.83 135.392 242.854C135.392 240.891 136.614 239.539 138.408 239.539C140.111 239.539 141.268 240.748 141.268 242.529V242.971H136.263C136.328 244.505 137.134 245.389 138.486 245.389C139.513 245.389 140.176 244.947 140.41 244.115H141.268C140.93 245.441 139.955 246.156 138.473 246.156ZM138.408 240.306C137.225 240.306 136.445 241.086 136.289 242.321H140.371C140.371 241.112 139.591 240.306 138.408 240.306ZM143.21 244.232H144.068C144.068 244.96 144.614 245.415 145.498 245.415C146.473 245.415 147.045 244.999 147.045 244.323C147.045 243.803 146.785 243.504 146.044 243.322L144.965 243.049C143.873 242.776 143.34 242.204 143.34 241.346C143.34 240.241 144.263 239.539 145.615 239.539C146.941 239.539 147.799 240.267 147.838 241.437H146.967C146.941 240.709 146.434 240.28 145.589 240.28C144.705 240.28 144.211 240.657 144.211 241.333C144.211 241.814 144.549 242.152 145.238 242.321L146.317 242.594C147.409 242.867 147.903 243.374 147.903 244.284C147.903 245.415 146.941 246.156 145.511 246.156C144.094 246.156 143.21 245.402 143.21 244.232ZM149.977 242.854C149.977 240.93 151.329 239.539 153.175 239.539C155.021 239.539 156.373 240.93 156.373 242.854C156.373 244.765 155.021 246.156 153.175 246.156C151.329 246.156 149.977 244.765 149.977 242.854ZM150.887 242.841C150.887 244.323 151.823 245.35 153.175 245.35C154.514 245.35 155.463 244.323 155.463 242.841C155.463 241.385 154.514 240.345 153.175 240.345C151.823 240.345 150.887 241.385 150.887 242.841ZM163.116 239.708H164.013V246H163.233L163.116 244.934C162.765 245.662 161.894 246.156 160.906 246.156C159.424 246.156 158.618 245.142 158.618 243.608V239.695H159.528V243.322C159.528 244.817 160.191 245.35 161.192 245.35C162.401 245.35 163.116 244.544 163.116 243.049V239.708ZM170.21 239.63V240.436H169.716C168.559 240.436 167.818 241.216 167.818 242.412V246H166.921V239.708H167.766L167.831 240.683C168.078 240.007 168.741 239.565 169.625 239.565C169.82 239.565 169.989 239.578 170.21 239.63ZM171.759 242.867C171.759 240.891 172.968 239.539 174.801 239.539C176.257 239.539 177.323 240.384 177.57 241.684H176.673C176.439 240.813 175.685 240.332 174.814 240.332C173.54 240.332 172.643 241.307 172.643 242.854C172.643 244.349 173.475 245.35 174.749 245.35C175.685 245.35 176.439 244.83 176.686 244.024H177.596C177.297 245.311 176.179 246.156 174.749 246.156C172.968 246.156 171.759 244.843 171.759 242.867ZM182.634 246.156C180.788 246.156 179.553 244.83 179.553 242.854C179.553 240.891 180.775 239.539 182.569 239.539C184.272 239.539 185.429 240.748 185.429 242.529V242.971H180.424C180.489 244.505 181.295 245.389 182.647 245.389C183.674 245.389 184.337 244.947 184.571 244.115H185.429C185.091 245.441 184.116 246.156 182.634 246.156ZM182.569 240.306C181.386 240.306 180.606 241.086 180.45 242.321H184.532C184.532 241.112 183.752 240.306 182.569 240.306ZM187.37 244.232H188.228C188.228 244.96 188.774 245.415 189.658 245.415C190.633 245.415 191.205 244.999 191.205 244.323C191.205 243.803 190.945 243.504 190.204 243.322L189.125 243.049C188.033 242.776 187.5 242.204 187.5 241.346C187.5 240.241 188.423 239.539 189.775 239.539C191.101 239.539 191.959 240.267 191.998 241.437H191.127C191.101 240.709 190.594 240.28 189.749 240.28C188.865 240.28 188.371 240.657 188.371 241.333C188.371 241.814 188.709 242.152 189.398 242.321L190.477 242.594C191.569 242.867 192.063 243.374 192.063 244.284C192.063 245.415 191.101 246.156 189.671 246.156C188.254 246.156 187.37 245.402 187.37 244.232Z" fill="white"/>
<rect x="0.4" y="142.4" width="319.2" height="43.2" rx="7.6" stroke="white" stroke-opacity="0.7" stroke-width="0.8"/>
<path d="M134.68 166.581H132.067V170H131.131V160.692H134.68C136.474 160.692 137.605 161.862 137.605 163.617C137.605 165.307 136.461 166.581 134.68 166.581ZM134.55 161.537H132.067V165.736H134.498C135.85 165.736 136.63 164.878 136.63 163.604C136.63 162.317 135.837 161.537 134.55 161.537ZM141.514 170.156C140.175 170.156 139.382 169.402 139.382 168.297C139.382 167.14 140.266 166.412 141.735 166.295L143.815 166.126V165.918C143.815 164.683 143.074 164.293 142.151 164.293C141.059 164.293 140.409 164.787 140.409 165.632H139.59C139.59 164.358 140.63 163.539 142.177 163.539C143.633 163.539 144.699 164.267 144.699 165.931V170H143.945L143.828 168.895C143.438 169.688 142.58 170.156 141.514 170.156ZM141.722 169.428C143.048 169.428 143.815 168.505 143.815 167.14V166.802L141.956 166.945C140.773 167.049 140.292 167.569 140.292 168.271C140.292 169.038 140.864 169.428 141.722 169.428ZM150.828 163.63V164.436H150.334C149.177 164.436 148.436 165.216 148.436 166.412V170H147.539V163.708H148.384L148.449 164.683C148.696 164.007 149.359 163.565 150.243 163.565C150.438 163.565 150.607 163.578 150.828 163.63ZM154.758 170H153.874V164.462H152.613V163.708H153.874V161.719H154.758V163.708H156.019V164.462H154.758V170ZM159.124 170H158.227V163.708H159.007L159.137 164.8C159.553 163.994 160.385 163.539 161.295 163.539C163.024 163.539 163.739 164.566 163.739 166.152V170H162.842V166.347C162.842 164.878 162.179 164.358 161.139 164.358C159.852 164.358 159.124 165.294 159.124 166.711V170ZM169.206 170.156C167.36 170.156 166.125 168.83 166.125 166.854C166.125 164.891 167.347 163.539 169.141 163.539C170.844 163.539 172.001 164.748 172.001 166.529V166.971H166.996C167.061 168.505 167.867 169.389 169.219 169.389C170.246 169.389 170.909 168.947 171.143 168.115H172.001C171.663 169.441 170.688 170.156 169.206 170.156ZM169.141 164.306C167.958 164.306 167.178 165.086 167.022 166.321H171.104C171.104 165.112 170.324 164.306 169.141 164.306ZM177.764 163.63V164.436H177.27C176.113 164.436 175.372 165.216 175.372 166.412V170H174.475V163.708H175.32L175.385 164.683C175.632 164.007 176.295 163.565 177.179 163.565C177.374 163.565 177.543 163.578 177.764 163.63ZM179.463 168.232H180.321C180.321 168.96 180.867 169.415 181.751 169.415C182.726 169.415 183.298 168.999 183.298 168.323C183.298 167.803 183.038 167.504 182.297 167.322L181.218 167.049C180.126 166.776 179.593 166.204 179.593 165.346C179.593 164.241 180.516 163.539 181.868 163.539C183.194 163.539 184.052 164.267 184.091 165.437H183.22C183.194 164.709 182.687 164.28 181.842 164.28C180.958 164.28 180.464 164.657 180.464 165.333C180.464 165.814 180.802 166.152 181.491 166.321L182.57 166.594C183.662 166.867 184.156 167.374 184.156 168.284C184.156 169.415 183.194 170.156 181.764 170.156C180.347 170.156 179.463 169.402 179.463 168.232Z" fill="white"/>
<line x1="159.6" y1="66" x2="159.6" y2="44" stroke="white" stroke-opacity="0.7" stroke-width="0.8"/>
<path d="M159.6 142C159.6 142.221 159.779 142.4 160 142.4C160.221 142.4 160.4 142.221 160.4 142H160H159.6ZM160 142H160.4V110H160H159.6V142H160Z" fill="white" fill-opacity="0.7"/>
<path d="M159.6 219C159.6 219.221 159.779 219.4 160 219.4C160.221 219.4 160.4 219.221 160.4 219H160H159.6ZM160.4 187V186.6H159.6V187H160H160.4ZM160 219H160.4V187H160H159.6V219H160Z" fill="white" fill-opacity="0.7"/>
<path d="M159.6 295C159.6 295.221 159.779 295.4 160 295.4C160.221 295.4 160.4 295.221 160.4 295H160H159.6ZM160 295H160.4V263H160H159.6V295H160Z" fill="white" fill-opacity="0.7"/>
<rect x="0.4" y="0.4" width="319.2" height="43.2" rx="7.6" stroke="white" stroke-opacity="0.7" stroke-width="0.8"/>
<path d="M143.067 27H142.131V17.692H143.067V21.839H148.098V17.692H149.021V27H148.098V22.71H143.067V27ZM151.7 23.854C151.7 21.93 153.052 20.539 154.898 20.539C156.744 20.539 158.096 21.93 158.096 23.854C158.096 25.765 156.744 27.156 154.898 27.156C153.052 27.156 151.7 25.765 151.7 23.854ZM152.61 23.841C152.61 25.323 153.546 26.35 154.898 26.35C156.237 26.35 157.186 25.323 157.186 23.841C157.186 22.385 156.237 21.345 154.898 21.345C153.546 21.345 152.61 22.385 152.61 23.841ZM161.468 27H160.571V20.708H161.351L161.455 21.605C161.767 20.942 162.469 20.539 163.353 20.539C164.341 20.539 165.082 21.059 165.381 21.878C165.667 21.059 166.434 20.539 167.448 20.539C168.813 20.539 169.71 21.423 169.71 22.879V27H168.839V23.061C168.839 21.982 168.241 21.345 167.279 21.345C166.226 21.345 165.602 22.138 165.602 23.113V27H164.718V23.048C164.718 21.982 164.107 21.358 163.158 21.358C162.105 21.358 161.468 22.138 161.468 23.1V27ZM175.193 27.156C173.347 27.156 172.112 25.83 172.112 23.854C172.112 21.891 173.334 20.539 175.128 20.539C176.831 20.539 177.988 21.748 177.988 23.529V23.971H172.983C173.048 25.505 173.854 26.389 175.206 26.389C176.233 26.389 176.896 25.947 177.13 25.115H177.988C177.65 26.441 176.675 27.156 175.193 27.156ZM175.128 21.306C173.945 21.306 173.165 22.086 173.009 23.321H177.091C177.091 22.112 176.311 21.306 175.128 21.306Z" fill="white"/>
<rect x="0.4" y="295.4" width="319.2" height="43.2" rx="7.6" stroke="white" stroke-opacity="0.7" stroke-width="0.8"/>
<path d="M138.927 322.143C136.327 322.143 134.559 320.206 134.559 317.346C134.559 314.486 136.353 312.536 138.979 312.536C140.981 312.536 142.554 313.745 142.931 315.591H141.93C141.54 314.252 140.396 313.433 138.94 313.433C136.899 313.433 135.534 314.993 135.534 317.346C135.534 319.686 136.899 321.246 138.94 321.246C140.409 321.246 141.579 320.453 141.982 319.205H142.983C142.554 320.96 140.929 322.143 138.927 322.143ZM145.005 318.854C145.005 316.93 146.357 315.539 148.203 315.539C150.049 315.539 151.401 316.93 151.401 318.854C151.401 320.765 150.049 322.156 148.203 322.156C146.357 322.156 145.005 320.765 145.005 318.854ZM145.915 318.841C145.915 320.323 146.851 321.35 148.203 321.35C149.542 321.35 150.491 320.323 150.491 318.841C150.491 317.385 149.542 316.345 148.203 316.345C146.851 316.345 145.915 317.385 145.915 318.841ZM154.772 322H153.875V315.708H154.655L154.785 316.8C155.201 315.994 156.033 315.539 156.943 315.539C158.672 315.539 159.387 316.566 159.387 318.152V322H158.49V318.347C158.49 316.878 157.827 316.358 156.787 316.358C155.5 316.358 154.772 317.294 154.772 318.711V322ZM163.658 322H162.774V316.462H161.513V315.708H162.774V313.719H163.658V315.708H164.919V316.462H163.658V322ZM168.833 322.156C167.494 322.156 166.701 321.402 166.701 320.297C166.701 319.14 167.585 318.412 169.054 318.295L171.134 318.126V317.918C171.134 316.683 170.393 316.293 169.47 316.293C168.378 316.293 167.728 316.787 167.728 317.632H166.909C166.909 316.358 167.949 315.539 169.496 315.539C170.952 315.539 172.018 316.267 172.018 317.931V322H171.264L171.147 320.895C170.757 321.688 169.899 322.156 168.833 322.156ZM169.041 321.428C170.367 321.428 171.134 320.505 171.134 319.14V318.802L169.275 318.945C168.092 319.049 167.611 319.569 167.611 320.271C167.611 321.038 168.183 321.428 169.041 321.428ZM174.416 318.867C174.416 316.891 175.625 315.539 177.458 315.539C178.914 315.539 179.98 316.384 180.227 317.684H179.33C179.096 316.813 178.342 316.332 177.471 316.332C176.197 316.332 175.3 317.307 175.3 318.854C175.3 320.349 176.132 321.35 177.406 321.35C178.342 321.35 179.096 320.83 179.343 320.024H180.253C179.954 321.311 178.836 322.156 177.406 322.156C175.625 322.156 174.416 320.843 174.416 318.867ZM184.095 322H183.211V316.462H181.95V315.708H183.211V313.719H184.095V315.708H185.356V316.462H184.095V322Z" fill="white"/>
<rect x="0.4" y="66.4" width="319.2" height="43.2" rx="7.6" stroke="white" stroke-opacity="0.7" stroke-width="0.8"/>
<path d="M130.572 86.11C130.572 84.55 131.82 83.523 133.692 83.523C135.369 83.523 136.474 84.459 136.617 86.019H135.668C135.564 84.966 134.849 84.368 133.679 84.368C132.366 84.368 131.508 85.044 131.508 86.097C131.508 86.916 131.989 87.436 132.964 87.683L134.563 88.073C136.019 88.424 136.773 89.256 136.773 90.517C136.773 92.129 135.525 93.156 133.601 93.156C131.794 93.156 130.572 92.207 130.455 90.686H131.417C131.469 91.661 132.327 92.298 133.601 92.298C134.966 92.298 135.837 91.635 135.837 90.569C135.837 89.737 135.369 89.191 134.368 88.957L132.795 88.567C131.339 88.216 130.572 87.384 130.572 86.11ZM138.859 89.854C138.859 87.93 140.211 86.539 142.057 86.539C143.903 86.539 145.255 87.93 145.255 89.854C145.255 91.765 143.903 93.156 142.057 93.156C140.211 93.156 138.859 91.765 138.859 89.854ZM139.769 89.841C139.769 91.323 140.705 92.35 142.057 92.35C143.396 92.35 144.345 91.323 144.345 89.841C144.345 88.385 143.396 87.345 142.057 87.345C140.705 87.345 139.769 88.385 139.769 89.841ZM148.666 93H147.769V83.523H148.666V93ZM156.034 86.708H156.931V93H156.151L156.034 91.934C155.683 92.662 154.812 93.156 153.824 93.156C152.342 93.156 151.536 92.142 151.536 90.608V86.695H152.446V90.322C152.446 91.817 153.109 92.35 154.11 92.35C155.319 92.35 156.034 91.544 156.034 90.049V86.708ZM161.282 93H160.398V87.462H159.137V86.708H160.398V84.719H161.282V86.708H162.543V87.462H161.282V93ZM165.193 84.979C164.829 84.979 164.53 84.68 164.53 84.316C164.53 83.952 164.829 83.64 165.193 83.64C165.557 83.64 165.869 83.952 165.869 84.316C165.869 84.68 165.557 84.979 165.193 84.979ZM164.751 93V86.708H165.648V93H164.751ZM168.117 89.854C168.117 87.93 169.469 86.539 171.315 86.539C173.161 86.539 174.513 87.93 174.513 89.854C174.513 91.765 173.161 93.156 171.315 93.156C169.469 93.156 168.117 91.765 168.117 89.854ZM169.027 89.841C169.027 91.323 169.963 92.35 171.315 92.35C172.654 92.35 173.603 91.323 173.603 89.841C173.603 88.385 172.654 87.345 171.315 87.345C169.963 87.345 169.027 88.385 169.027 89.841ZM177.884 93H176.987V86.708H177.767L177.897 87.8C178.313 86.994 179.145 86.539 180.055 86.539C181.784 86.539 182.499 87.566 182.499 89.152V93H181.602V89.347C181.602 87.878 180.939 87.358 179.899 87.358C178.612 87.358 177.884 88.294 177.884 89.711V93ZM184.718 91.232H185.576C185.576 91.96 186.122 92.415 187.006 92.415C187.981 92.415 188.553 91.999 188.553 91.323C188.553 90.803 188.293 90.504 187.552 90.322L186.473 90.049C185.381 89.776 184.848 89.204 184.848 88.346C184.848 87.241 185.771 86.539 187.123 86.539C188.449 86.539 189.307 87.267 189.346 88.437H188.475C188.449 87.709 187.942 87.28 187.097 87.28C186.213 87.28 185.719 87.657 185.719 88.333C185.719 88.814 186.057 89.152 186.746 89.321L187.825 89.594C188.917 89.867 189.411 90.374 189.411 91.284C189.411 92.415 188.449 93.156 187.019 93.156C185.602 93.156 184.718 92.402 184.718 91.232Z" fill="white"/>
</svg>
