<svg width="420" height="192" viewBox="0 0 420 192" fill="none" xmlns="http://www.w3.org/2000/svg">
<rect width="420" height="192" rx="16" fill="url(#paint0_linear_171_44)"/>
<rect x="28" y="24" width="364" height="64" rx="8" fill="white" fill-opacity="0.08"/>
<path d="M28.546 111.622C28.546 109.83 30.03 108.584 32.186 108.584C34.258 108.584 35.574 109.732 35.63 111.58H33.838C33.796 110.698 33.166 110.18 32.158 110.18C31.052 110.18 30.338 110.712 30.338 111.566C30.338 112.294 30.73 112.7 31.584 112.896L33.194 113.246C34.944 113.624 35.798 114.52 35.798 116.046C35.798 117.95 34.314 119.182 32.06 119.182C29.876 119.182 28.448 118.02 28.406 116.186H30.198C30.212 117.054 30.912 117.572 32.06 117.572C33.25 117.572 34.006 117.054 34.006 116.2C34.006 115.514 33.656 115.108 32.816 114.926L31.192 114.562C29.456 114.184 28.546 113.19 28.546 111.622ZM42.5852 115.472H40.3312V119H38.5392V108.766H42.5852C44.6432 108.766 45.9732 110.11 45.9732 112.112C45.9732 114.086 44.6292 115.472 42.5852 115.472ZM42.2352 110.362H40.3312V113.876H42.2072C43.4392 113.876 44.0972 113.218 44.0972 112.098C44.0972 110.978 43.4252 110.362 42.2352 110.362ZM48.9357 119H47.0737L50.7697 108.766H52.6037L56.2997 119H54.4097L53.5837 116.634H49.7617L48.9357 119ZM51.4557 111.818L50.2937 115.122H53.0657L51.8897 111.818C51.8057 111.552 51.7077 111.244 51.6797 111.034C51.6377 111.23 51.5537 111.538 51.4557 111.818ZM62.5231 119.168C59.5411 119.168 57.6091 117.096 57.6091 113.89C57.6091 110.712 59.6111 108.598 62.6071 108.598C65.0291 108.598 66.8351 110.012 67.1851 112.21H65.2951C64.9451 111.02 63.9231 110.32 62.5651 110.32C60.6751 110.32 59.4851 111.692 59.4851 113.876C59.4851 116.046 60.6891 117.446 62.5651 117.446C63.9511 117.446 65.0151 116.718 65.3511 115.584H67.2131C66.8211 117.74 64.9451 119.168 62.5231 119.168ZM71.7322 108.766V119H69.9402V108.766H71.7322ZM76.8847 119H75.1207V108.766H76.8987L81.7007 116.018V108.766H83.4647V119H81.7007L76.8847 111.748V119ZM91.3301 110.278C89.3001 110.278 88.1381 111.748 88.1381 113.96C88.1381 116.242 89.4541 117.488 91.3441 117.488C93.1221 117.488 94.2001 116.508 94.2001 114.87V114.828H91.1061V113.246H95.8661V119H94.3541L94.2421 117.824C93.6821 118.608 92.5201 119.154 91.1341 119.154C88.2641 119.154 86.2621 117.068 86.2621 113.918C86.2621 110.81 88.2921 108.598 91.3721 108.598C93.7101 108.598 95.5161 109.956 95.8101 112.042H93.9201C93.5981 110.838 92.5621 110.278 91.3301 110.278ZM103.227 111.622C103.227 109.83 104.711 108.584 106.867 108.584C108.939 108.584 110.255 109.732 110.311 111.58H108.519C108.477 110.698 107.847 110.18 106.839 110.18C105.733 110.18 105.019 110.712 105.019 111.566C105.019 112.294 105.411 112.7 106.265 112.896L107.875 113.246C109.625 113.624 110.479 114.52 110.479 116.046C110.479 117.95 108.995 119.182 106.741 119.182C104.557 119.182 103.129 118.02 103.087 116.186H104.879C104.893 117.054 105.593 117.572 106.741 117.572C107.931 117.572 108.687 117.054 108.687 116.2C108.687 115.514 108.337 115.108 107.497 114.926L105.873 114.562C104.137 114.184 103.227 113.19 103.227 111.622ZM115.41 114.968L111.952 108.766H113.954L115.97 112.49C116.124 112.77 116.222 112.994 116.334 113.246C116.46 112.994 116.516 112.826 116.698 112.49L118.7 108.766H120.646L117.202 114.968V119H115.41V114.968ZM122.228 111.622C122.228 109.83 123.712 108.584 125.868 108.584C127.94 108.584 129.256 109.732 129.312 111.58H127.52C127.478 110.698 126.848 110.18 125.84 110.18C124.734 110.18 124.02 110.712 124.02 111.566C124.02 112.294 124.412 112.7 125.266 112.896L126.876 113.246C128.626 113.624 129.48 114.52 129.48 116.046C129.48 117.95 127.996 119.182 125.742 119.182C123.558 119.182 122.13 118.02 122.088 116.186H123.88C123.894 117.054 124.594 117.572 125.742 117.572C126.932 117.572 127.688 117.054 127.688 116.2C127.688 115.514 127.338 115.108 126.498 114.926L124.874 114.562C123.138 114.184 122.228 113.19 122.228 111.622ZM131.189 110.418V108.766H138.973V110.418H135.977V119H134.185V110.418H131.189ZM147.819 119H141.463V108.766H147.819V110.418H143.255V113.05H147.343V114.632H143.255V117.348H147.819V119ZM152.617 119H150.881V108.766H152.617L155.921 116.914L159.225 108.766H160.989V119H159.253V115.85C159.253 113.792 159.253 113.19 159.351 112.462L156.747 119H155.095L152.505 112.476C152.603 113.092 152.617 114.058 152.617 115.332V119Z" fill="#E7E0E4"/>
<path d="M32.548 146.132C30.148 146.132 28.516 144.344 28.516 141.704C28.516 139.064 30.172 137.264 32.596 137.264C34.444 137.264 35.896 138.38 36.244 140.084H35.32C34.96 138.848 33.904 138.092 32.56 138.092C30.676 138.092 29.416 139.532 29.416 141.704C29.416 143.864 30.676 145.304 32.56 145.304C33.916 145.304 34.996 144.572 35.368 143.42H36.292C35.896 145.04 34.396 146.132 32.548 146.132ZM38.1582 143.096C38.1582 141.32 39.4062 140.036 41.1102 140.036C42.8142 140.036 44.0622 141.32 44.0622 143.096C44.0622 144.86 42.8142 146.144 41.1102 146.144C39.4062 146.144 38.1582 144.86 38.1582 143.096ZM38.9982 143.084C38.9982 144.452 39.8622 145.4 41.1102 145.4C42.3462 145.4 43.2222 144.452 43.2222 143.084C43.2222 141.74 42.3462 140.78 41.1102 140.78C39.8622 140.78 38.9982 141.74 38.9982 143.084ZM47.1745 146H46.3465V140.192H47.0665L47.1865 141.2C47.5705 140.456 48.3385 140.036 49.1785 140.036C50.7745 140.036 51.4345 140.984 51.4345 142.448V146H50.6065V142.628C50.6065 141.272 49.9945 140.792 49.0345 140.792C47.8465 140.792 47.1745 141.656 47.1745 142.964V146ZM53.4825 144.368H54.2745C54.2745 145.04 54.7785 145.46 55.5945 145.46C56.4945 145.46 57.0225 145.076 57.0225 144.452C57.0225 143.972 56.7825 143.696 56.0985 143.528L55.1025 143.276C54.0945 143.024 53.6025 142.496 53.6025 141.704C53.6025 140.684 54.4545 140.036 55.7025 140.036C56.9265 140.036 57.7185 140.708 57.7545 141.788H56.9505C56.9265 141.116 56.4585 140.72 55.6785 140.72C54.8625 140.72 54.4065 141.068 54.4065 141.692C54.4065 142.136 54.7185 142.448 55.3545 142.604L56.3505 142.856C57.3585 143.108 57.8145 143.576 57.8145 144.416C57.8145 145.46 56.9265 146.144 55.6065 146.144C54.2985 146.144 53.4825 145.448 53.4825 144.368ZM60.5456 138.596C60.2096 138.596 59.9336 138.32 59.9336 137.984C59.9336 137.648 60.2096 137.36 60.5456 137.36C60.8816 137.36 61.1696 137.648 61.1696 137.984C61.1696 138.32 60.8816 138.596 60.5456 138.596ZM60.1376 146V140.192H60.9656V146H60.1376ZM63.1603 144.368H63.9523C63.9523 145.04 64.4563 145.46 65.2723 145.46C66.1723 145.46 66.7003 145.076 66.7003 144.452C66.7003 143.972 66.4603 143.696 65.7763 143.528L64.7803 143.276C63.7723 143.024 63.2803 142.496 63.2803 141.704C63.2803 140.684 64.1323 140.036 65.3803 140.036C66.6043 140.036 67.3963 140.708 67.4323 141.788H66.6283C66.6043 141.116 66.1363 140.72 65.3563 140.72C64.5403 140.72 64.0843 141.068 64.0843 141.692C64.0843 142.136 64.3963 142.448 65.0323 142.604L66.0283 142.856C67.0363 143.108 67.4923 143.576 67.4923 144.416C67.4923 145.46 66.6043 146.144 65.2843 146.144C63.9763 146.144 63.1603 145.448 63.1603 144.368ZM71.1474 146H70.3314V140.888H69.1674V140.192H70.3314V138.356H71.1474V140.192H72.3114V140.888H71.1474V146ZM76.727 146.144C75.023 146.144 73.883 144.92 73.883 143.096C73.883 141.284 75.011 140.036 76.667 140.036C78.239 140.036 79.307 141.152 79.307 142.796V143.204H74.687C74.747 144.62 75.491 145.436 76.739 145.436C77.687 145.436 78.299 145.028 78.515 144.26H79.307C78.995 145.484 78.095 146.144 76.727 146.144ZM76.667 140.744C75.575 140.744 74.855 141.464 74.711 142.604H78.479C78.479 141.488 77.759 140.744 76.667 140.744ZM82.4189 146H81.5909V140.192H82.3109L82.4309 141.2C82.8149 140.456 83.5829 140.036 84.4229 140.036C86.0189 140.036 86.6789 140.984 86.6789 142.448V146H85.8509V142.628C85.8509 141.272 85.2389 140.792 84.2789 140.792C83.0909 140.792 82.4189 141.656 82.4189 142.964V146ZM90.6212 146H89.8052V140.888H88.6412V140.192H89.8052V138.356H90.6212V140.192H91.7852V140.888H90.6212V146ZM97.6195 144.368H98.4115C98.4115 145.04 98.9155 145.46 99.7315 145.46C100.631 145.46 101.159 145.076 101.159 144.452C101.159 143.972 100.919 143.696 100.235 143.528L99.2395 143.276C98.2315 143.024 97.7395 142.496 97.7395 141.704C97.7395 140.684 98.5915 140.036 99.8395 140.036C101.063 140.036 101.855 140.708 101.891 141.788H101.087C101.063 141.116 100.595 140.72 99.8155 140.72C98.9995 140.72 98.5435 141.068 98.5435 141.692C98.5435 142.136 98.8555 142.448 99.4915 142.604L100.487 142.856C101.495 143.108 101.951 143.576 101.951 144.416C101.951 145.46 101.063 146.144 99.7435 146.144C98.4355 146.144 97.6195 145.448 97.6195 144.368ZM104.275 148.532V140.192H104.995L105.079 141.368C105.487 140.468 106.303 140.036 107.275 140.036C108.955 140.036 109.963 141.32 109.963 143.072C109.963 144.824 108.991 146.144 107.275 146.144C106.291 146.144 105.511 145.724 105.103 144.884V148.532H104.275ZM105.115 143.096C105.115 144.428 105.859 145.4 107.131 145.4C108.391 145.4 109.123 144.428 109.123 143.096C109.123 141.752 108.391 140.792 107.131 140.792C105.859 140.792 105.115 141.752 105.115 143.096ZM113.91 146.144C112.674 146.144 111.942 145.448 111.942 144.428C111.942 143.36 112.758 142.688 114.114 142.58L116.034 142.424V142.232C116.034 141.092 115.35 140.732 114.498 140.732C113.49 140.732 112.89 141.188 112.89 141.968H112.134C112.134 140.792 113.094 140.036 114.522 140.036C115.866 140.036 116.85 140.708 116.85 142.244V146H116.154L116.046 144.98C115.686 145.712 114.894 146.144 113.91 146.144ZM114.102 145.472C115.326 145.472 116.034 144.62 116.034 143.36V143.048L114.318 143.18C113.226 143.276 112.782 143.756 112.782 144.404C112.782 145.112 113.31 145.472 114.102 145.472ZM119.064 143.108C119.064 141.284 120.18 140.036 121.872 140.036C123.216 140.036 124.2 140.816 124.428 142.016H123.6C123.384 141.212 122.688 140.768 121.884 140.768C120.708 140.768 119.88 141.668 119.88 143.096C119.88 144.476 120.648 145.4 121.824 145.4C122.688 145.4 123.384 144.92 123.612 144.176H124.452C124.176 145.364 123.144 146.144 121.824 146.144C120.18 146.144 119.064 144.932 119.064 143.108ZM127.074 138.596C126.738 138.596 126.462 138.32 126.462 137.984C126.462 137.648 126.738 137.36 127.074 137.36C127.41 137.36 127.698 137.648 127.698 137.984C127.698 138.32 127.41 138.596 127.074 138.596ZM126.666 146V140.192H127.494V146H126.666ZM131.009 146H130.181V140.192H130.901L131.021 141.2C131.405 140.456 132.173 140.036 133.013 140.036C134.609 140.036 135.269 140.984 135.269 142.448V146H134.441V142.628C134.441 141.272 133.829 140.792 132.869 140.792C131.681 140.792 131.009 141.656 131.009 142.964V146ZM137.483 142.928C137.483 141.344 138.503 140.036 140.207 140.036C141.215 140.036 141.983 140.504 142.355 141.356L142.439 140.192H143.159V145.82C143.159 147.548 142.055 148.676 140.351 148.676C138.863 148.676 137.819 147.836 137.591 146.432H138.419C138.599 147.368 139.319 147.92 140.363 147.92C141.551 147.92 142.343 147.116 142.343 145.904V144.524C141.947 145.34 141.143 145.82 140.147 145.82C138.491 145.82 137.483 144.512 137.483 142.928ZM138.311 142.916C138.311 144.104 139.043 145.076 140.267 145.076C141.527 145.076 142.271 144.164 142.271 142.916C142.271 141.68 141.551 140.768 140.279 140.768C139.031 140.768 138.311 141.74 138.311 142.916ZM149.643 144.368H150.435C150.435 145.04 150.939 145.46 151.755 145.46C152.655 145.46 153.183 145.076 153.183 144.452C153.183 143.972 152.943 143.696 152.259 143.528L151.263 143.276C150.255 143.024 149.763 142.496 149.763 141.704C149.763 140.684 150.615 140.036 151.863 140.036C153.087 140.036 153.879 140.708 153.915 141.788H153.111C153.087 141.116 152.619 140.72 151.839 140.72C151.023 140.72 150.567 141.068 150.567 141.692C150.567 142.136 150.879 142.448 151.515 142.604L152.511 142.856C153.519 143.108 153.975 143.576 153.975 144.416C153.975 145.46 153.087 146.144 151.767 146.144C150.459 146.144 149.643 145.448 149.643 144.368ZM155.593 148.532V147.848H156.229C156.733 147.848 157.237 147.812 157.525 147.032L157.777 146.348L155.425 140.192H156.301L158.173 145.256L160.009 140.192H160.861L158.197 147.332C157.861 148.244 157.297 148.616 156.469 148.616C156.121 148.616 155.857 148.592 155.593 148.532ZM162.262 144.368H163.054C163.054 145.04 163.558 145.46 164.374 145.46C165.274 145.46 165.802 145.076 165.802 144.452C165.802 143.972 165.562 143.696 164.878 143.528L163.882 143.276C162.874 143.024 162.382 142.496 162.382 141.704C162.382 140.684 163.234 140.036 164.482 140.036C165.706 140.036 166.498 140.708 166.534 141.788H165.73C165.706 141.116 165.238 140.72 164.458 140.72C163.642 140.72 163.186 141.068 163.186 141.692C163.186 142.136 163.498 142.448 164.134 142.604L165.13 142.856C166.138 143.108 166.594 143.576 166.594 144.416C166.594 145.46 165.706 146.144 164.386 146.144C163.078 146.144 162.262 145.448 162.262 144.368ZM170.25 146H169.434V140.888H168.27V140.192H169.434V138.356H170.25V140.192H171.414V140.888H170.25V146ZM175.829 146.144C174.125 146.144 172.985 144.92 172.985 143.096C172.985 141.284 174.113 140.036 175.769 140.036C177.341 140.036 178.409 141.152 178.409 142.796V143.204H173.789C173.849 144.62 174.593 145.436 175.841 145.436C176.789 145.436 177.401 145.028 177.617 144.26H178.409C178.097 145.484 177.197 146.144 175.829 146.144ZM175.769 140.744C174.677 140.744 173.957 141.464 173.813 142.604H177.581C177.581 141.488 176.861 140.744 175.769 140.744ZM181.521 146H180.693V140.192H181.413L181.509 141.02C181.797 140.408 182.445 140.036 183.261 140.036C184.173 140.036 184.857 140.516 185.133 141.272C185.397 140.516 186.105 140.036 187.041 140.036C188.301 140.036 189.129 140.852 189.129 142.196V146H188.325V142.364C188.325 141.368 187.773 140.78 186.885 140.78C185.913 140.78 185.337 141.512 185.337 142.412V146H184.521V142.352C184.521 141.368 183.957 140.792 183.081 140.792C182.109 140.792 181.521 141.512 181.521 142.4V146ZM198.479 146.144C196.775 146.144 195.635 144.92 195.635 143.096C195.635 141.284 196.763 140.036 198.419 140.036C199.991 140.036 201.059 141.152 201.059 142.796V143.204H196.439C196.499 144.62 197.243 145.436 198.491 145.436C199.439 145.436 200.051 145.028 200.267 144.26H201.059C200.747 145.484 199.847 146.144 198.479 146.144ZM198.419 140.744C197.327 140.744 196.607 141.464 196.463 142.604H200.231C200.231 141.488 199.511 140.744 198.419 140.744ZM204.171 146H203.343V140.192H204.063L204.183 141.2C204.567 140.456 205.335 140.036 206.175 140.036C207.771 140.036 208.431 140.984 208.431 142.448V146H207.603V142.628C207.603 141.272 206.991 140.792 206.031 140.792C204.843 140.792 204.171 141.656 204.171 142.964V146ZM210.479 144.368H211.271C211.271 145.04 211.775 145.46 212.591 145.46C213.491 145.46 214.019 145.076 214.019 144.452C214.019 143.972 213.779 143.696 213.095 143.528L212.099 143.276C211.091 143.024 210.599 142.496 210.599 141.704C210.599 140.684 211.451 140.036 212.699 140.036C213.923 140.036 214.715 140.708 214.751 141.788H213.947C213.923 141.116 213.455 140.72 212.675 140.72C211.859 140.72 211.403 141.068 211.403 141.692C211.403 142.136 211.715 142.448 212.351 142.604L213.347 142.856C214.355 143.108 214.811 143.576 214.811 144.416C214.811 145.46 213.923 146.144 212.603 146.144C211.295 146.144 210.479 145.448 210.479 144.368ZM221.214 140.192H222.042V146H221.322L221.214 145.016C220.89 145.688 220.086 146.144 219.174 146.144C217.806 146.144 217.062 145.208 217.062 143.792V140.18H217.902V143.528C217.902 144.908 218.514 145.4 219.438 145.4C220.554 145.4 221.214 144.656 221.214 143.276V140.192ZM227.763 140.12V140.864H227.307C226.239 140.864 225.555 141.584 225.555 142.688V146H224.727V140.192H225.507L225.567 141.092C225.795 140.468 226.407 140.06 227.223 140.06C227.403 140.06 227.559 140.072 227.763 140.12ZM230.231 138.596C229.895 138.596 229.619 138.32 229.619 137.984C229.619 137.648 229.895 137.36 230.231 137.36C230.567 137.36 230.855 137.648 230.855 137.984C230.855 138.32 230.567 138.596 230.231 138.596ZM229.823 146V140.192H230.651V146H229.823ZM234.166 146H233.338V140.192H234.058L234.178 141.2C234.562 140.456 235.33 140.036 236.17 140.036C237.766 140.036 238.426 140.984 238.426 142.448V146H237.598V142.628C237.598 141.272 236.986 140.792 236.026 140.792C234.838 140.792 234.166 141.656 234.166 142.964V146ZM240.64 142.928C240.64 141.344 241.66 140.036 243.364 140.036C244.372 140.036 245.14 140.504 245.512 141.356L245.596 140.192H246.316V145.82C246.316 147.548 245.212 148.676 243.508 148.676C242.02 148.676 240.976 147.836 240.748 146.432H241.576C241.756 147.368 242.476 147.92 243.52 147.92C244.708 147.92 245.5 147.116 245.5 145.904V144.524C245.104 145.34 244.3 145.82 243.304 145.82C241.648 145.82 240.64 144.512 240.64 142.928ZM241.468 142.916C241.468 144.104 242.2 145.076 243.424 145.076C244.684 145.076 245.428 144.164 245.428 142.916C245.428 141.68 244.708 140.768 243.436 140.768C242.188 140.768 241.468 141.74 241.468 142.916ZM254.912 146L252.536 140.192H253.424L254.924 143.936C255.08 144.356 255.236 144.752 255.344 145.136C255.452 144.74 255.608 144.356 255.776 143.936L257.3 140.192H258.152L255.74 146H254.912ZM260.496 138.596C260.16 138.596 259.884 138.32 259.884 137.984C259.884 137.648 260.16 137.36 260.496 137.36C260.832 137.36 261.12 137.648 261.12 137.984C261.12 138.32 260.832 138.596 260.496 138.596ZM260.088 146V140.192H260.916V146H260.088ZM263.111 144.368H263.903C263.903 145.04 264.407 145.46 265.223 145.46C266.123 145.46 266.651 145.076 266.651 144.452C266.651 143.972 266.411 143.696 265.727 143.528L264.731 143.276C263.723 143.024 263.231 142.496 263.231 141.704C263.231 140.684 264.083 140.036 265.331 140.036C266.555 140.036 267.347 140.708 267.383 141.788H266.579C266.555 141.116 266.087 140.72 265.307 140.72C264.491 140.72 264.035 141.068 264.035 141.692C264.035 142.136 264.347 142.448 264.983 142.604L265.979 142.856C266.987 143.108 267.443 143.576 267.443 144.416C267.443 145.46 266.555 146.144 265.235 146.144C263.927 146.144 263.111 145.448 263.111 144.368ZM273.846 140.192H274.674V146H273.954L273.846 145.016C273.522 145.688 272.718 146.144 271.806 146.144C270.438 146.144 269.694 145.208 269.694 143.792V140.18H270.534V143.528C270.534 144.908 271.146 145.4 272.07 145.4C273.186 145.4 273.846 144.656 273.846 143.276V140.192ZM279.027 146.144C277.791 146.144 277.059 145.448 277.059 144.428C277.059 143.36 277.875 142.688 279.231 142.58L281.151 142.424V142.232C281.151 141.092 280.467 140.732 279.615 140.732C278.607 140.732 278.007 141.188 278.007 141.968H277.251C277.251 140.792 278.211 140.036 279.639 140.036C280.983 140.036 281.967 140.708 281.967 142.244V146H281.271L281.163 144.98C280.803 145.712 280.011 146.144 279.027 146.144ZM279.219 145.472C280.443 145.472 281.151 144.62 281.151 143.36V143.048L279.435 143.18C278.343 143.276 277.899 143.756 277.899 144.404C277.899 145.112 278.427 145.472 279.219 145.472ZM285.452 146H284.624V137.252H285.452V146ZM293.181 146H292.461V137.252H293.289V141.32C293.697 140.468 294.489 140.036 295.473 140.036C297.165 140.036 298.149 141.356 298.149 143.108C298.149 144.848 297.141 146.144 295.449 146.144C294.477 146.144 293.673 145.712 293.265 144.812L293.181 146ZM293.301 143.084C293.301 144.428 294.045 145.388 295.317 145.388C296.577 145.388 297.309 144.428 297.309 143.084C297.309 141.752 296.577 140.78 295.317 140.78C294.045 140.78 293.301 141.752 293.301 143.084ZM302.097 146.144C300.861 146.144 300.129 145.448 300.129 144.428C300.129 143.36 300.945 142.688 302.301 142.58L304.221 142.424V142.232C304.221 141.092 303.537 140.732 302.685 140.732C301.677 140.732 301.077 141.188 301.077 141.968H300.321C300.321 140.792 301.281 140.036 302.709 140.036C304.053 140.036 305.037 140.708 305.037 142.244V146H304.341L304.233 144.98C303.873 145.712 303.081 146.144 302.097 146.144ZM302.289 145.472C303.513 145.472 304.221 144.62 304.221 143.36V143.048L302.505 143.18C301.413 143.276 300.969 143.756 300.969 144.404C300.969 145.112 301.497 145.472 302.289 145.472ZM308.523 146H307.695V137.252H308.523V146ZM312.912 146.144C311.676 146.144 310.944 145.448 310.944 144.428C310.944 143.36 311.76 142.688 313.116 142.58L315.036 142.424V142.232C315.036 141.092 314.352 140.732 313.5 140.732C312.492 140.732 311.892 141.188 311.892 141.968H311.136C311.136 140.792 312.096 140.036 313.524 140.036C314.868 140.036 315.852 140.708 315.852 142.244V146H315.156L315.048 144.98C314.688 145.712 313.896 146.144 312.912 146.144ZM313.104 145.472C314.328 145.472 315.036 144.62 315.036 143.36V143.048L313.32 143.18C312.228 143.276 311.784 143.756 311.784 144.404C311.784 145.112 312.312 145.472 313.104 145.472ZM319.301 146H318.473V140.192H319.193L319.313 141.2C319.697 140.456 320.465 140.036 321.305 140.036C322.901 140.036 323.561 140.984 323.561 142.448V146H322.733V142.628C322.733 141.272 322.121 140.792 321.161 140.792C319.973 140.792 319.301 141.656 319.301 142.964V146ZM325.763 143.108C325.763 141.284 326.879 140.036 328.571 140.036C329.915 140.036 330.899 140.816 331.127 142.016H330.299C330.083 141.212 329.387 140.768 328.583 140.768C327.407 140.768 326.579 141.668 326.579 143.096C326.579 144.476 327.347 145.4 328.523 145.4C329.387 145.4 330.083 144.92 330.311 144.176H331.151C330.875 145.364 329.843 146.144 328.523 146.144C326.879 146.144 325.763 144.932 325.763 143.108ZM335.802 146.144C334.098 146.144 332.958 144.92 332.958 143.096C332.958 141.284 334.086 140.036 335.742 140.036C337.314 140.036 338.382 141.152 338.382 142.796V143.204H333.762C333.822 144.62 334.566 145.436 335.814 145.436C336.762 145.436 337.374 145.028 337.59 144.26H338.382C338.07 145.484 337.17 146.144 335.802 146.144ZM335.742 140.744C334.65 140.744 333.93 141.464 333.786 142.604H337.554C337.554 141.488 336.834 140.744 335.742 140.744ZM346.622 146.144C345.386 146.144 344.654 145.448 344.654 144.428C344.654 143.36 345.47 142.688 346.826 142.58L348.746 142.424V142.232C348.746 141.092 348.062 140.732 347.21 140.732C346.202 140.732 345.602 141.188 345.602 141.968H344.846C344.846 140.792 345.806 140.036 347.234 140.036C348.578 140.036 349.562 140.708 349.562 142.244V146H348.866L348.758 144.98C348.398 145.712 347.606 146.144 346.622 146.144ZM346.814 145.472C348.038 145.472 348.746 144.62 348.746 143.36V143.048L347.03 143.18C345.938 143.276 345.494 143.756 345.494 144.404C345.494 145.112 346.022 145.472 346.814 145.472ZM353.011 146H352.183V140.192H352.903L353.023 141.2C353.407 140.456 354.175 140.036 355.015 140.036C356.611 140.036 357.271 140.984 357.271 142.448V146H356.443V142.628C356.443 141.272 355.831 140.792 354.871 140.792C353.683 140.792 353.011 141.656 353.011 142.964V146ZM362.162 146.144C360.47 146.144 359.474 144.848 359.474 143.108C359.474 141.356 360.47 140.036 362.198 140.036C363.158 140.036 363.926 140.456 364.334 141.296V137.252H365.162V146H364.442L364.358 144.812C363.95 145.712 363.134 146.144 362.162 146.144ZM362.306 145.388C363.578 145.388 364.322 144.428 364.322 143.084C364.322 141.752 363.578 140.78 362.306 140.78C361.046 140.78 360.314 141.752 360.314 143.084C360.314 144.428 361.046 145.388 362.306 145.388ZM29.728 164H28.9V155.252H29.728V164ZM34.117 164.144C32.881 164.144 32.149 163.448 32.149 162.428C32.149 161.36 32.965 160.688 34.321 160.58L36.241 160.424V160.232C36.241 159.092 35.557 158.732 34.705 158.732C33.697 158.732 33.097 159.188 33.097 159.968H32.341C32.341 158.792 33.301 158.036 34.729 158.036C36.073 158.036 37.057 158.708 37.057 160.244V164H36.361L36.253 162.98C35.893 163.712 35.101 164.144 34.117 164.144ZM34.309 163.472C35.533 163.472 36.241 162.62 36.241 161.36V161.048L34.525 161.18C33.433 161.276 32.989 161.756 32.989 162.404C32.989 163.112 33.517 163.472 34.309 163.472ZM38.9616 166.532V165.848H39.5976C40.1016 165.848 40.6056 165.812 40.8936 165.032L41.1456 164.348L38.7936 158.192H39.6696L41.5416 163.256L43.3776 158.192H44.2296L41.5656 165.332C41.2296 166.244 40.6656 166.616 39.8376 166.616C39.4896 166.616 39.2256 166.592 38.9616 166.532ZM45.5508 161.096C45.5508 159.32 46.7988 158.036 48.5028 158.036C50.2068 158.036 51.4548 159.32 51.4548 161.096C51.4548 162.86 50.2068 164.144 48.5028 164.144C46.7988 164.144 45.5508 162.86 45.5508 161.096ZM46.3908 161.084C46.3908 162.452 47.2548 163.4 48.5028 163.4C49.7388 163.4 50.6148 162.452 50.6148 161.084C50.6148 159.74 49.7388 158.78 48.5028 158.78C47.2548 158.78 46.3908 159.74 46.3908 161.084ZM57.6785 158.192H58.5065V164H57.7865L57.6785 163.016C57.3545 163.688 56.5505 164.144 55.6385 164.144C54.2705 164.144 53.5265 163.208 53.5265 161.792V158.18H54.3665V161.528C54.3665 162.908 54.9785 163.4 55.9025 163.4C57.0185 163.4 57.6785 162.656 57.6785 161.276V158.192ZM62.5233 164H61.7073V158.888H60.5433V158.192H61.7073V156.356H62.5233V158.192H63.6873V158.888H62.5233V164ZM70.8417 163.988H70.0137V155.252H70.8417V159.2C71.2137 158.504 71.9217 158.036 72.8937 158.036C74.4177 158.036 75.1017 158.984 75.1017 160.448V164H74.2737V160.628C74.2737 159.272 73.6377 158.792 72.7377 158.792C71.4897 158.792 70.8417 159.716 70.8417 160.832V163.988ZM79.38 164.144C78.144 164.144 77.412 163.448 77.412 162.428C77.412 161.36 78.228 160.688 79.584 160.58L81.504 160.424V160.232C81.504 159.092 80.82 158.732 79.968 158.732C78.96 158.732 78.36 159.188 78.36 159.968H77.604C77.604 158.792 78.564 158.036 79.992 158.036C81.336 158.036 82.32 158.708 82.32 160.244V164H81.624L81.516 162.98C81.156 163.712 80.364 164.144 79.38 164.144ZM79.572 163.472C80.796 163.472 81.504 162.62 81.504 161.36V161.048L79.788 161.18C78.696 161.276 78.252 161.756 78.252 162.404C78.252 163.112 78.78 163.472 79.572 163.472ZM87.9775 158.12V158.864H87.5215C86.4535 158.864 85.7695 159.584 85.7695 160.688V164H84.9415V158.192H85.7215L85.7815 159.092C86.0095 158.468 86.6215 158.06 87.4375 158.06C87.6175 158.06 87.7735 158.072 87.9775 158.12ZM90.8662 164H90.0382V158.192H90.7582L90.8542 159.02C91.1422 158.408 91.7902 158.036 92.6062 158.036C93.5182 158.036 94.2022 158.516 94.4782 159.272C94.7422 158.516 95.4502 158.036 96.3862 158.036C97.6462 158.036 98.4742 158.852 98.4742 160.196V164H97.6702V160.364C97.6702 159.368 97.1182 158.78 96.2302 158.78C95.2582 158.78 94.6822 159.512 94.6822 160.412V164H93.8662V160.352C93.8662 159.368 93.3022 158.792 92.4262 158.792C91.4542 158.792 90.8662 159.512 90.8662 160.4V164ZM100.692 161.096C100.692 159.32 101.94 158.036 103.644 158.036C105.348 158.036 106.596 159.32 106.596 161.096C106.596 162.86 105.348 164.144 103.644 164.144C101.94 164.144 100.692 162.86 100.692 161.096ZM101.532 161.084C101.532 162.452 102.396 163.4 103.644 163.4C104.88 163.4 105.756 162.452 105.756 161.084C105.756 159.74 104.88 158.78 103.644 158.78C102.396 158.78 101.532 159.74 101.532 161.084ZM109.708 164H108.88V158.192H109.6L109.72 159.2C110.104 158.456 110.872 158.036 111.712 158.036C113.308 158.036 113.968 158.984 113.968 160.448V164H113.14V160.628C113.14 159.272 112.528 158.792 111.568 158.792C110.38 158.792 109.708 159.656 109.708 160.964V164ZM115.873 166.532V165.848H116.509C117.013 165.848 117.517 165.812 117.805 165.032L118.057 164.348L115.705 158.192H116.581L118.453 163.256L120.289 158.192H121.141L118.477 165.332C118.141 166.244 117.577 166.616 116.749 166.616C116.401 166.616 116.137 166.592 115.873 166.532ZM122.864 164.132C122.456 164.132 122.108 163.796 122.108 163.4C122.108 162.992 122.456 162.644 122.864 162.644C123.272 162.644 123.62 162.992 123.62 163.4C123.62 163.796 123.272 164.132 122.864 164.132Z" fill="#E7E0E4" fill-opacity="0.65"/>
<rect x="190" y="44" width="40" height="24" rx="4" fill="#E7E0E4" fill-opacity="0.35"/>
<rect x="190.25" y="44.25" width="39.5" height="23.5" rx="3.75" stroke="#E7E0E4" stroke-opacity="0.55" stroke-width="0.5"/>
<rect x="134" y="44" width="40" height="24" rx="4" fill="#E7E0E4" fill-opacity="0.35"/>
<rect x="134.25" y="44.25" width="39.5" height="23.5" rx="3.75" stroke="#E7E0E4" stroke-opacity="0.55" stroke-width="0.5"/>
<rect x="246" y="44" width="40" height="24" rx="4" fill="#E7E0E4" fill-opacity="0.35"/>
<rect x="246.25" y="44.25" width="39.5" height="23.5" rx="3.75" stroke="#E7E0E4" stroke-opacity="0.55" stroke-width="0.5"/>
<defs>
<linearGradient id="paint0_linear_171_44" x1="300.616" y1="8.0394" x2="26.0563" y2="126.597" gradientUnits="userSpaceOnUse">
<stop stop-color="#F5F5F5" stop-opacity="0.05"/>
<stop offset="0.5" stop-color="#F5F5F5" stop-opacity="0.065"/>
<stop offset="1" stop-color="#F5F5F5" stop-opacity="0.05"/>
</linearGradient>
</defs>
</svg>
