<svg width="420" height="192" viewBox="0 0 420 192" fill="none" xmlns="http://www.w3.org/2000/svg">
<rect width="420" height="192" rx="16" fill="url(#paint0_linear_170_19)"/>
<rect x="28" y="24" width="364" height="64" rx="8" fill="white" fill-opacity="0.08"/>
<rect x="44" y="43" width="36" height="12" rx="2" fill="#E7E0E4"/>
<rect x="118" y="46" width="48" height="6" rx="3" fill="#E7E0E4" fill-opacity="0.65"/>
<rect x="182" y="45" width="56" height="6" rx="3" fill="#E7E0E4" fill-opacity="0.65"/>
<rect x="254" y="45" width="44" height="6" rx="3" fill="#E7E0E4" fill-opacity="0.65"/>
<rect x="328" y="41" width="48" height="16" rx="3" fill="#E7E0E4" fill-opacity="0.3"/>
<path d="M30.898 119H29.134V108.766H30.912L35.714 116.018V108.766H37.478V119H35.714L30.898 111.748V119ZM41.7454 119H39.8834L43.5794 108.766H45.4134L49.1094 119H47.2194L46.3934 116.634H42.5714L41.7454 119ZM44.2654 111.818L43.1034 115.122H45.8754L44.6994 111.818C44.6154 111.552 44.5174 111.244 44.4894 111.034C44.4474 111.23 44.3634 111.538 44.2654 111.818ZM52.8924 119L49.0284 108.766H50.9324L53.1724 114.66C53.3964 115.276 53.5924 115.878 53.8164 116.704C54.0684 115.808 54.2784 115.178 54.4744 114.66L56.6864 108.766H58.5484L54.7404 119H52.8924ZM62.7372 108.766V119H60.9452V108.766H62.7372ZM70.6057 110.278C68.5757 110.278 67.4137 111.748 67.4137 113.96C67.4137 116.242 68.7297 117.488 70.6197 117.488C72.3977 117.488 73.4757 116.508 73.4757 114.87V114.828H70.3817V113.246H75.1417V119H73.6297L73.5177 117.824C72.9577 118.608 71.7957 119.154 70.4097 119.154C67.5397 119.154 65.5377 117.068 65.5377 113.918C65.5377 110.81 67.5677 108.598 70.6477 108.598C72.9857 108.598 74.7917 109.956 75.0857 112.042H73.1957C72.8737 110.838 71.8377 110.278 70.6057 110.278ZM79.0789 119H77.2169L80.9129 108.766H82.7469L86.4429 119H84.5529L83.7269 116.634H79.9049L79.0789 119ZM81.5989 111.818L80.4369 115.122H83.2089L82.0329 111.818C81.9489 111.552 81.8509 111.244 81.8229 111.034C81.7809 111.23 81.6969 111.538 81.5989 111.818ZM87.0342 110.418V108.766H94.8182V110.418H91.8222V119H90.0302V110.418H87.0342ZM99.1 108.766V119H97.308V108.766H99.1ZM111.827 113.876C111.827 116.984 109.783 119.168 106.843 119.168C103.917 119.168 101.901 116.998 101.901 113.876C101.901 110.768 103.931 108.584 106.857 108.584C109.783 108.584 111.827 110.754 111.827 113.876ZM109.937 113.876C109.937 111.692 108.733 110.306 106.857 110.306C104.981 110.306 103.777 111.692 103.777 113.876C103.777 116.06 104.981 117.446 106.857 117.446C108.733 117.446 109.937 116.032 109.937 113.876ZM116.378 119H114.614V108.766H116.392L121.194 116.018V108.766H122.958V119H121.194L116.378 111.748V119ZM130.649 111.622C130.649 109.83 132.133 108.584 134.289 108.584C136.361 108.584 137.677 109.732 137.733 111.58H135.941C135.899 110.698 135.269 110.18 134.261 110.18C133.155 110.18 132.441 110.712 132.441 111.566C132.441 112.294 132.833 112.7 133.687 112.896L135.297 113.246C137.047 113.624 137.901 114.52 137.901 116.046C137.901 117.95 136.417 119.182 134.163 119.182C131.979 119.182 130.551 118.02 130.509 116.186H132.301C132.315 117.054 133.015 117.572 134.163 117.572C135.353 117.572 136.109 117.054 136.109 116.2C136.109 115.514 135.759 115.108 134.919 114.926L133.295 114.562C131.559 114.184 130.649 113.19 130.649 111.622ZM142.833 114.968L139.375 108.766H141.377L143.393 112.49C143.547 112.77 143.645 112.994 143.757 113.246C143.883 112.994 143.939 112.826 144.121 112.49L146.123 108.766H148.069L144.625 114.968V119H142.833V114.968ZM149.651 111.622C149.651 109.83 151.135 108.584 153.291 108.584C155.363 108.584 156.679 109.732 156.735 111.58H154.943C154.901 110.698 154.271 110.18 153.263 110.18C152.157 110.18 151.443 110.712 151.443 111.566C151.443 112.294 151.835 112.7 152.689 112.896L154.299 113.246C156.049 113.624 156.903 114.52 156.903 116.046C156.903 117.95 155.419 119.182 153.165 119.182C150.981 119.182 149.553 118.02 149.511 116.186H151.303C151.317 117.054 152.017 117.572 153.165 117.572C154.355 117.572 155.111 117.054 155.111 116.2C155.111 115.514 154.761 115.108 153.921 114.926L152.297 114.562C150.561 114.184 149.651 113.19 149.651 111.622ZM158.611 110.418V108.766H166.395V110.418H163.399V119H161.607V110.418H158.611ZM175.241 119H168.885V108.766H175.241V110.418H170.677V113.05H174.765V114.632H170.677V117.348H175.241V119ZM180.04 119H178.304V108.766H180.04L183.344 116.914L186.648 108.766H188.412V119H186.676V115.85C186.676 113.792 186.676 113.19 186.774 112.462L184.17 119H182.518L179.928 112.476C180.026 113.092 180.04 114.058 180.04 115.332V119Z" fill="#E7E0E4"/>
<path d="M32.548 146.132C30.148 146.132 28.516 144.344 28.516 141.704C28.516 139.064 30.172 137.264 32.596 137.264C34.444 137.264 35.896 138.38 36.244 140.084H35.32C34.96 138.848 33.904 138.092 32.56 138.092C30.676 138.092 29.416 139.532 29.416 141.704C29.416 143.864 30.676 145.304 32.56 145.304C33.916 145.304 34.996 144.572 35.368 143.42H36.292C35.896 145.04 34.396 146.132 32.548 146.132ZM39.3716 146H38.5436V137.252H39.3716V146ZM44.5286 146.144C42.8246 146.144 41.6846 144.92 41.6846 143.096C41.6846 141.284 42.8126 140.036 44.4686 140.036C46.0406 140.036 47.1086 141.152 47.1086 142.796V143.204H42.4886C42.5486 144.62 43.2926 145.436 44.5406 145.436C45.4886 145.436 46.1006 145.028 46.3166 144.26H47.1086C46.7966 145.484 45.8966 146.144 44.5286 146.144ZM44.4686 140.744C43.3766 140.744 42.6566 141.464 42.5126 142.604H46.2806C46.2806 141.488 45.5606 140.744 44.4686 140.744ZM51.0018 146.144C49.7658 146.144 49.0338 145.448 49.0338 144.428C49.0338 143.36 49.8498 142.688 51.2058 142.58L53.1258 142.424V142.232C53.1258 141.092 52.4418 140.732 51.5898 140.732C50.5818 140.732 49.9818 141.188 49.9818 141.968H49.2258C49.2258 140.792 50.1858 140.036 51.6138 140.036C52.9578 140.036 53.9418 140.708 53.9418 142.244V146H53.2458L53.1378 144.98C52.7778 145.712 51.9858 146.144 51.0018 146.144ZM51.1938 145.472C52.4178 145.472 53.1258 144.62 53.1258 143.36V143.048L51.4098 143.18C50.3178 143.276 49.8738 143.756 49.8738 144.404C49.8738 145.112 50.4018 145.472 51.1938 145.472ZM59.5994 140.12V140.864H59.1434C58.0754 140.864 57.3914 141.584 57.3914 142.688V146H56.5634V140.192H57.3434L57.4034 141.092C57.6314 140.468 58.2434 140.06 59.0594 140.06C59.2394 140.06 59.3954 140.072 59.5994 140.12ZM66.7762 145.988H65.9482V137.252H66.7762V141.2C67.1482 140.504 67.8562 140.036 68.8282 140.036C70.3522 140.036 71.0362 140.984 71.0362 142.448V146H70.2082V142.628C70.2082 141.272 69.5722 140.792 68.6722 140.792C67.4242 140.792 66.7762 141.716 66.7762 142.832V145.988ZM76.0825 146.144C74.3785 146.144 73.2385 144.92 73.2385 143.096C73.2385 141.284 74.3665 140.036 76.0225 140.036C77.5945 140.036 78.6625 141.152 78.6625 142.796V143.204H74.0425C74.1025 144.62 74.8465 145.436 76.0945 145.436C77.0425 145.436 77.6545 145.028 77.8705 144.26H78.6625C78.3505 145.484 77.4505 146.144 76.0825 146.144ZM76.0225 140.744C74.9305 140.744 74.2105 141.464 74.0665 142.604H77.8345C77.8345 141.488 77.1145 140.744 76.0225 140.744ZM82.5558 146.144C81.3198 146.144 80.5878 145.448 80.5878 144.428C80.5878 143.36 81.4038 142.688 82.7598 142.58L84.6798 142.424V142.232C84.6798 141.092 83.9958 140.732 83.1438 140.732C82.1358 140.732 81.5358 141.188 81.5358 141.968H80.7798C80.7798 140.792 81.7398 140.036 83.1678 140.036C84.5118 140.036 85.4958 140.708 85.4958 142.244V146H84.7998L84.6918 144.98C84.3318 145.712 83.5398 146.144 82.5558 146.144ZM82.7478 145.472C83.9718 145.472 84.6798 144.62 84.6798 143.36V143.048L82.9638 143.18C81.8718 143.276 81.4278 143.756 81.4278 144.404C81.4278 145.112 81.9558 145.472 82.7478 145.472ZM90.3973 146.144C88.7053 146.144 87.7093 144.848 87.7093 143.108C87.7093 141.356 88.7053 140.036 90.4333 140.036C91.3933 140.036 92.1613 140.456 92.5693 141.296V137.252H93.3973V146H92.6773L92.5933 144.812C92.1853 145.712 91.3693 146.144 90.3973 146.144ZM90.5413 145.388C91.8133 145.388 92.5573 144.428 92.5573 143.084C92.5573 141.752 91.8133 140.78 90.5413 140.78C89.2813 140.78 88.5493 141.752 88.5493 143.084C88.5493 144.428 89.2813 145.388 90.5413 145.388ZM98.5211 146.144C96.8171 146.144 95.6771 144.92 95.6771 143.096C95.6771 141.284 96.8051 140.036 98.4611 140.036C100.033 140.036 101.101 141.152 101.101 142.796V143.204H96.4811C96.5411 144.62 97.2851 145.436 98.5331 145.436C99.4811 145.436 100.093 145.028 100.309 144.26H101.101C100.789 145.484 99.8891 146.144 98.5211 146.144ZM98.4611 140.744C97.3691 140.744 96.6491 141.464 96.5051 142.604H100.273C100.273 141.488 99.5531 140.744 98.4611 140.744ZM106.421 140.12V140.864H105.965C104.897 140.864 104.213 141.584 104.213 142.688V146H103.385V140.192H104.165L104.225 141.092C104.453 140.468 105.065 140.06 105.881 140.06C106.061 140.06 106.217 140.072 106.421 140.12ZM112.278 144.368H113.07C113.07 145.04 113.574 145.46 114.39 145.46C115.29 145.46 115.818 145.076 115.818 144.452C115.818 143.972 115.578 143.696 114.894 143.528L113.898 143.276C112.89 143.024 112.398 142.496 112.398 141.704C112.398 140.684 113.25 140.036 114.498 140.036C115.722 140.036 116.514 140.708 116.55 141.788H115.746C115.722 141.116 115.254 140.72 114.474 140.72C113.658 140.72 113.202 141.068 113.202 141.692C113.202 142.136 113.514 142.448 114.15 142.604L115.146 142.856C116.154 143.108 116.61 143.576 116.61 144.416C116.61 145.46 115.722 146.144 114.402 146.144C113.094 146.144 112.278 145.448 112.278 144.368ZM120.265 146H119.449V140.888H118.285V140.192H119.449V138.356H120.265V140.192H121.429V140.888H120.265V146ZM126.503 140.12V140.864H126.047C124.979 140.864 124.295 141.584 124.295 142.688V146H123.467V140.192H124.247L124.307 141.092C124.535 140.468 125.147 140.06 125.963 140.06C126.143 140.06 126.299 140.072 126.503 140.12ZM132.644 140.192H133.472V146H132.752L132.644 145.016C132.32 145.688 131.516 146.144 130.604 146.144C129.236 146.144 128.492 145.208 128.492 143.792V140.18H129.332V143.528C129.332 144.908 129.944 145.4 130.868 145.4C131.984 145.4 132.644 144.656 132.644 143.276V140.192ZM135.631 143.108C135.631 141.284 136.747 140.036 138.439 140.036C139.783 140.036 140.767 140.816 140.995 142.016H140.167C139.951 141.212 139.255 140.768 138.451 140.768C137.275 140.768 136.447 141.668 136.447 143.096C136.447 144.476 137.215 145.4 138.391 145.4C139.255 145.4 139.951 144.92 140.179 144.176H141.019C140.743 145.364 139.711 146.144 138.391 146.144C136.747 146.144 135.631 144.932 135.631 143.108ZM144.566 146H143.75V140.888H142.586V140.192H143.75V138.356H144.566V140.192H145.73V140.888H144.566V146ZM151.848 140.192H152.676V146H151.956L151.848 145.016C151.524 145.688 150.72 146.144 149.808 146.144C148.44 146.144 147.696 145.208 147.696 143.792V140.18H148.536V143.528C148.536 144.908 149.148 145.4 150.072 145.4C151.188 145.4 151.848 144.656 151.848 143.276V140.192ZM158.397 140.12V140.864H157.941C156.873 140.864 156.189 141.584 156.189 142.688V146H155.361V140.192H156.141L156.201 141.092C156.429 140.468 157.041 140.06 157.857 140.06C158.037 140.06 158.193 140.072 158.397 140.12ZM162.671 146.144C160.967 146.144 159.827 144.92 159.827 143.096C159.827 141.284 160.955 140.036 162.611 140.036C164.183 140.036 165.251 141.152 165.251 142.796V143.204H160.631C160.691 144.62 161.435 145.436 162.683 145.436C163.631 145.436 164.243 145.028 164.459 144.26H165.251C164.939 145.484 164.039 146.144 162.671 146.144ZM162.611 140.744C161.519 140.744 160.799 141.464 160.655 142.604H164.423C164.423 141.488 163.703 140.744 162.611 140.744ZM174.259 146.144C172.555 146.144 171.415 144.92 171.415 143.096C171.415 141.284 172.543 140.036 174.199 140.036C175.771 140.036 176.839 141.152 176.839 142.796V143.204H172.219C172.279 144.62 173.023 145.436 174.271 145.436C175.219 145.436 175.831 145.028 176.047 144.26H176.839C176.527 145.484 175.627 146.144 174.259 146.144ZM174.199 140.744C173.107 140.744 172.387 141.464 172.243 142.604H176.011C176.011 141.488 175.291 140.744 174.199 140.744ZM179.951 146H179.123V140.192H179.843L179.963 141.2C180.347 140.456 181.115 140.036 181.955 140.036C183.551 140.036 184.211 140.984 184.211 142.448V146H183.383V142.628C183.383 141.272 182.771 140.792 181.811 140.792C180.623 140.792 179.951 141.656 179.951 142.964V146ZM188.489 146.144C187.253 146.144 186.521 145.448 186.521 144.428C186.521 143.36 187.337 142.688 188.693 142.58L190.613 142.424V142.232C190.613 141.092 189.929 140.732 189.077 140.732C188.069 140.732 187.469 141.188 187.469 141.968H186.713C186.713 140.792 187.673 140.036 189.101 140.036C190.445 140.036 191.429 140.708 191.429 142.244V146H190.733L190.625 144.98C190.265 145.712 189.473 146.144 188.489 146.144ZM188.681 145.472C189.905 145.472 190.613 144.62 190.613 143.36V143.048L188.897 143.18C187.805 143.276 187.361 143.756 187.361 144.404C187.361 145.112 187.889 145.472 188.681 145.472ZM194.771 146H194.051V137.252H194.879V141.32C195.287 140.468 196.079 140.036 197.063 140.036C198.755 140.036 199.739 141.356 199.739 143.108C199.739 144.848 198.731 146.144 197.039 146.144C196.067 146.144 195.263 145.712 194.855 144.812L194.771 146ZM194.891 143.084C194.891 144.428 195.635 145.388 196.907 145.388C198.167 145.388 198.899 144.428 198.899 143.084C198.899 141.752 198.167 140.78 196.907 140.78C195.635 140.78 194.891 141.752 194.891 143.084ZM202.882 146H202.054V137.252H202.882V146ZM206.011 138.596C205.675 138.596 205.399 138.32 205.399 137.984C205.399 137.648 205.675 137.36 206.011 137.36C206.347 137.36 206.635 137.648 206.635 137.984C206.635 138.32 206.347 138.596 206.011 138.596ZM205.603 146V140.192H206.431V146H205.603ZM209.946 146H209.118V140.192H209.838L209.958 141.2C210.342 140.456 211.11 140.036 211.95 140.036C213.546 140.036 214.206 140.984 214.206 142.448V146H213.378V142.628C213.378 141.272 212.766 140.792 211.806 140.792C210.618 140.792 209.946 141.656 209.946 142.964V146ZM216.42 142.928C216.42 141.344 217.44 140.036 219.144 140.036C220.152 140.036 220.92 140.504 221.292 141.356L221.376 140.192H222.096V145.82C222.096 147.548 220.992 148.676 219.288 148.676C217.8 148.676 216.756 147.836 216.528 146.432H217.356C217.536 147.368 218.256 147.92 219.3 147.92C220.488 147.92 221.28 147.116 221.28 145.904V144.524C220.884 145.34 220.08 145.82 219.084 145.82C217.428 145.82 216.42 144.512 216.42 142.928ZM217.248 142.916C217.248 144.104 217.98 145.076 219.204 145.076C220.464 145.076 221.208 144.164 221.208 142.916C221.208 141.68 220.488 140.768 219.216 140.768C217.968 140.768 217.248 141.74 217.248 142.916ZM228.424 140.192H229.312V139.064C229.312 137.756 230.032 137.252 230.92 137.252C231.124 137.252 231.364 137.264 231.556 137.3V138.008H231.064C230.332 138.008 230.14 138.38 230.14 139.064V140.192H231.508V140.888H230.14V146H229.312V140.888H228.424V140.192ZM235.052 146.144C233.816 146.144 233.084 145.448 233.084 144.428C233.084 143.36 233.9 142.688 235.256 142.58L237.176 142.424V142.232C237.176 141.092 236.492 140.732 235.64 140.732C234.632 140.732 234.032 141.188 234.032 141.968H233.276C233.276 140.792 234.236 140.036 235.664 140.036C237.008 140.036 237.992 140.708 237.992 142.244V146H237.296L237.188 144.98C236.828 145.712 236.036 146.144 235.052 146.144ZM235.244 145.472C236.468 145.472 237.176 144.62 237.176 143.36V143.048L235.46 143.18C234.368 143.276 233.924 143.756 233.924 144.404C233.924 145.112 234.452 145.472 235.244 145.472ZM240.121 144.368H240.913C240.913 145.04 241.417 145.46 242.233 145.46C243.133 145.46 243.661 145.076 243.661 144.452C243.661 143.972 243.421 143.696 242.737 143.528L241.741 143.276C240.733 143.024 240.241 142.496 240.241 141.704C240.241 140.684 241.093 140.036 242.341 140.036C243.565 140.036 244.357 140.708 244.393 141.788H243.589C243.565 141.116 243.097 140.72 242.317 140.72C241.501 140.72 241.045 141.068 241.045 141.692C241.045 142.136 241.357 142.448 241.993 142.604L242.989 142.856C243.997 143.108 244.453 143.576 244.453 144.416C244.453 145.46 243.565 146.144 242.245 146.144C240.937 146.144 240.121 145.448 240.121 144.368ZM248.109 146H247.293V140.888H246.129V140.192H247.293V138.356H248.109V140.192H249.273V140.888H248.109V146ZM256.427 146H255.599V140.192H256.319L256.439 141.2C256.823 140.456 257.591 140.036 258.431 140.036C260.027 140.036 260.687 140.984 260.687 142.448V146H259.859V142.628C259.859 141.272 259.247 140.792 258.287 140.792C257.099 140.792 256.427 141.656 256.427 142.964V146ZM264.965 146.144C263.729 146.144 262.997 145.448 262.997 144.428C262.997 143.36 263.813 142.688 265.169 142.58L267.089 142.424V142.232C267.089 141.092 266.405 140.732 265.553 140.732C264.545 140.732 263.945 141.188 263.945 141.968H263.189C263.189 140.792 264.149 140.036 265.577 140.036C266.921 140.036 267.905 140.708 267.905 142.244V146H267.209L267.101 144.98C266.741 145.712 265.949 146.144 264.965 146.144ZM265.157 145.472C266.381 145.472 267.089 144.62 267.089 143.36V143.048L265.373 143.18C264.281 143.276 263.837 143.756 263.837 144.404C263.837 145.112 264.365 145.472 265.157 145.472ZM271.912 146L269.536 140.192H270.424L271.924 143.936C272.08 144.356 272.236 144.752 272.344 145.136C272.452 144.74 272.608 144.356 272.776 143.936L274.3 140.192H275.152L272.74 146H271.912ZM277.496 138.596C277.16 138.596 276.884 138.32 276.884 137.984C276.884 137.648 277.16 137.36 277.496 137.36C277.832 137.36 278.12 137.648 278.12 137.984C278.12 138.32 277.832 138.596 277.496 138.596ZM277.088 146V140.192H277.916V146H277.088ZM280.207 142.928C280.207 141.344 281.227 140.036 282.931 140.036C283.939 140.036 284.707 140.504 285.079 141.356L285.163 140.192H285.883V145.82C285.883 147.548 284.779 148.676 283.075 148.676C281.587 148.676 280.543 147.836 280.315 146.432H281.143C281.323 147.368 282.043 147.92 283.087 147.92C284.275 147.92 285.067 147.116 285.067 145.904V144.524C284.671 145.34 283.867 145.82 282.871 145.82C281.215 145.82 280.207 144.512 280.207 142.928ZM281.035 142.916C281.035 144.104 281.767 145.076 282.991 145.076C284.251 145.076 284.995 144.164 284.995 142.916C284.995 141.68 284.275 140.768 283.003 140.768C281.755 140.768 281.035 141.74 281.035 142.916ZM290.239 146.144C289.003 146.144 288.271 145.448 288.271 144.428C288.271 143.36 289.087 142.688 290.443 142.58L292.363 142.424V142.232C292.363 141.092 291.679 140.732 290.827 140.732C289.819 140.732 289.219 141.188 289.219 141.968H288.463C288.463 140.792 289.423 140.036 290.851 140.036C292.195 140.036 293.179 140.708 293.179 142.244V146H292.483L292.375 144.98C292.015 145.712 291.223 146.144 290.239 146.144ZM290.431 145.472C291.655 145.472 292.363 144.62 292.363 143.36V143.048L290.647 143.18C289.555 143.276 289.111 143.756 289.111 144.404C289.111 145.112 289.639 145.472 290.431 145.472ZM297.027 146H296.211V140.888H295.047V140.192H296.211V138.356H297.027V140.192H298.191V140.888H297.027V146ZM300.637 138.596C300.301 138.596 300.025 138.32 300.025 137.984C300.025 137.648 300.301 137.36 300.637 137.36C300.973 137.36 301.261 137.648 301.261 137.984C301.261 138.32 300.973 138.596 300.637 138.596ZM300.229 146V140.192H301.057V146H300.229ZM303.336 143.096C303.336 141.32 304.584 140.036 306.288 140.036C307.992 140.036 309.24 141.32 309.24 143.096C309.24 144.86 307.992 146.144 306.288 146.144C304.584 146.144 303.336 144.86 303.336 143.096ZM304.176 143.084C304.176 144.452 305.04 145.4 306.288 145.4C307.524 145.4 308.4 144.452 308.4 143.084C308.4 141.74 307.524 140.78 306.288 140.78C305.04 140.78 304.176 141.74 304.176 143.084ZM312.352 146H311.524V140.192H312.244L312.364 141.2C312.748 140.456 313.516 140.036 314.356 140.036C315.952 140.036 316.612 140.984 316.612 142.448V146H315.784V142.628C315.784 141.272 315.172 140.792 314.212 140.792C313.024 140.792 312.352 141.656 312.352 142.964V146ZM325.178 146.144C323.942 146.144 323.21 145.448 323.21 144.428C323.21 143.36 324.026 142.688 325.382 142.58L327.302 142.424V142.232C327.302 141.092 326.618 140.732 325.766 140.732C324.758 140.732 324.158 141.188 324.158 141.968H323.402C323.402 140.792 324.362 140.036 325.79 140.036C327.134 140.036 328.118 140.708 328.118 142.244V146H327.422L327.314 144.98C326.954 145.712 326.162 146.144 325.178 146.144ZM325.37 145.472C326.594 145.472 327.302 144.62 327.302 143.36V143.048L325.586 143.18C324.494 143.276 324.05 143.756 324.05 144.404C324.05 145.112 324.578 145.472 325.37 145.472ZM330.332 143.108C330.332 141.284 331.448 140.036 333.14 140.036C334.484 140.036 335.468 140.816 335.696 142.016H334.868C334.652 141.212 333.956 140.768 333.152 140.768C331.976 140.768 331.148 141.668 331.148 143.096C331.148 144.476 331.916 145.4 333.092 145.4C333.956 145.4 334.652 144.92 334.88 144.176H335.72C335.444 145.364 334.412 146.144 333.092 146.144C331.448 146.144 330.332 144.932 330.332 143.108ZM340.97 140.12V140.864H340.514C339.446 140.864 338.762 141.584 338.762 142.688V146H337.934V140.192H338.714L338.774 141.092C339.002 140.468 339.614 140.06 340.43 140.06C340.61 140.06 340.766 140.072 340.97 140.12ZM342.4 143.096C342.4 141.32 343.648 140.036 345.352 140.036C347.056 140.036 348.304 141.32 348.304 143.096C348.304 144.86 347.056 146.144 345.352 146.144C343.648 146.144 342.4 144.86 342.4 143.096ZM343.24 143.084C343.24 144.452 344.104 145.4 345.352 145.4C346.588 145.4 347.464 144.452 347.464 143.084C347.464 141.74 346.588 140.78 345.352 140.78C344.104 140.78 343.24 141.74 343.24 143.084ZM350.097 144.368H350.889C350.889 145.04 351.393 145.46 352.209 145.46C353.109 145.46 353.637 145.076 353.637 144.452C353.637 143.972 353.397 143.696 352.713 143.528L351.717 143.276C350.709 143.024 350.217 142.496 350.217 141.704C350.217 140.684 351.069 140.036 352.317 140.036C353.541 140.036 354.333 140.708 354.369 141.788H353.565C353.541 141.116 353.073 140.72 352.293 140.72C351.477 140.72 351.021 141.068 351.021 141.692C351.021 142.136 351.333 142.448 351.969 142.604L352.965 142.856C353.973 143.108 354.429 143.576 354.429 144.416C354.429 145.46 353.541 146.144 352.221 146.144C350.913 146.144 350.097 145.448 350.097 144.368ZM356.26 144.368H357.052C357.052 145.04 357.556 145.46 358.372 145.46C359.272 145.46 359.8 145.076 359.8 144.452C359.8 143.972 359.56 143.696 358.876 143.528L357.88 143.276C356.872 143.024 356.38 142.496 356.38 141.704C356.38 140.684 357.232 140.036 358.48 140.036C359.704 140.036 360.496 140.708 360.532 141.788H359.728C359.704 141.116 359.236 140.72 358.456 140.72C357.64 140.72 357.184 141.068 357.184 141.692C357.184 142.136 357.496 142.448 358.132 142.604L359.128 142.856C360.136 143.108 360.592 143.576 360.592 144.416C360.592 145.46 359.704 146.144 358.384 146.144C357.076 146.144 356.26 145.448 356.26 144.368ZM368.067 146H367.239V137.252H368.067V143.192L370.947 140.192H371.991L369.759 142.508L372.003 146H371.043L369.195 143.096L368.067 144.26V146ZM376.189 146.144C374.485 146.144 373.345 144.92 373.345 143.096C373.345 141.284 374.473 140.036 376.129 140.036C377.701 140.036 378.769 141.152 378.769 142.796V143.204H374.149C374.209 144.62 374.953 145.436 376.201 145.436C377.149 145.436 377.761 145.028 377.977 144.26H378.769C378.457 145.484 377.557 146.144 376.189 146.144ZM376.129 140.744C375.037 140.744 374.317 141.464 374.173 142.604H377.941C377.941 141.488 377.221 140.744 376.129 140.744ZM380.324 148.532V147.848H380.96C381.464 147.848 381.968 147.812 382.256 147.032L382.508 146.348L380.156 140.192H381.032L382.904 145.256L384.74 140.192H385.592L382.928 147.332C382.592 148.244 382.028 148.616 381.2 148.616C380.852 148.616 380.588 148.592 380.324 148.532ZM28.372 162.368H29.164C29.164 163.04 29.668 163.46 30.484 163.46C31.384 163.46 31.912 163.076 31.912 162.452C31.912 161.972 31.672 161.696 30.988 161.528L29.992 161.276C28.984 161.024 28.492 160.496 28.492 159.704C28.492 158.684 29.344 158.036 30.592 158.036C31.816 158.036 32.608 158.708 32.644 159.788H31.84C31.816 159.116 31.348 158.72 30.568 158.72C29.752 158.72 29.296 159.068 29.296 159.692C29.296 160.136 29.608 160.448 30.244 160.604L31.24 160.856C32.248 161.108 32.704 161.576 32.704 162.416C32.704 163.46 31.816 164.144 30.496 164.144C29.188 164.144 28.372 163.448 28.372 162.368ZM37.4631 164.144C35.7591 164.144 34.6191 162.92 34.6191 161.096C34.6191 159.284 35.7471 158.036 37.4031 158.036C38.9751 158.036 40.0431 159.152 40.0431 160.796V161.204H35.4231C35.4831 162.62 36.2271 163.436 37.4751 163.436C38.4231 163.436 39.0351 163.028 39.2511 162.26H40.0431C39.7311 163.484 38.8311 164.144 37.4631 164.144ZM37.4031 158.744C36.3111 158.744 35.5911 159.464 35.4471 160.604H39.2151C39.2151 159.488 38.4951 158.744 37.4031 158.744ZM41.919 161.108C41.919 159.284 43.035 158.036 44.727 158.036C46.071 158.036 47.055 158.816 47.283 160.016H46.455C46.239 159.212 45.543 158.768 44.739 158.768C43.563 158.768 42.735 159.668 42.735 161.096C42.735 162.476 43.503 163.4 44.679 163.4C45.543 163.4 46.239 162.92 46.467 162.176H47.307C47.031 163.364 45.999 164.144 44.679 164.144C43.035 164.144 41.919 162.932 41.919 161.108ZM50.8533 164H50.0373V158.888H48.8733V158.192H50.0373V156.356H50.8533V158.192H52.0173V158.888H50.8533V164ZM54.4636 156.596C54.1276 156.596 53.8516 156.32 53.8516 155.984C53.8516 155.648 54.1276 155.36 54.4636 155.36C54.7996 155.36 55.0876 155.648 55.0876 155.984C55.0876 156.32 54.7996 156.596 54.4636 156.596ZM54.0556 164V158.192H54.8836V164H54.0556ZM57.1622 161.096C57.1622 159.32 58.4102 158.036 60.1142 158.036C61.8182 158.036 63.0662 159.32 63.0662 161.096C63.0662 162.86 61.8182 164.144 60.1142 164.144C58.4102 164.144 57.1622 162.86 57.1622 161.096ZM58.0022 161.084C58.0022 162.452 58.8662 163.4 60.1142 163.4C61.3502 163.4 62.2262 162.452 62.2262 161.084C62.2262 159.74 61.3502 158.78 60.1142 158.78C58.8662 158.78 58.0022 159.74 58.0022 161.084ZM66.1786 164H65.3506V158.192H66.0706L66.1906 159.2C66.5746 158.456 67.3426 158.036 68.1826 158.036C69.7786 158.036 70.4386 158.984 70.4386 160.448V164H69.6106V160.628C69.6106 159.272 68.9986 158.792 68.0386 158.792C66.8506 158.792 66.1786 159.656 66.1786 160.964V164ZM72.4865 162.368H73.2785C73.2785 163.04 73.7825 163.46 74.5985 163.46C75.4985 163.46 76.0265 163.076 76.0265 162.452C76.0265 161.972 75.7865 161.696 75.1025 161.528L74.1065 161.276C73.0985 161.024 72.6065 160.496 72.6065 159.704C72.6065 158.684 73.4585 158.036 74.7065 158.036C75.9305 158.036 76.7225 158.708 76.7585 159.788H75.9545C75.9305 159.116 75.4625 158.72 74.6825 158.72C73.8665 158.72 73.4105 159.068 73.4105 159.692C73.4105 160.136 73.7225 160.448 74.3585 160.604L75.3545 160.856C76.3625 161.108 76.8185 161.576 76.8185 162.416C76.8185 163.46 75.9305 164.144 74.6105 164.144C73.3025 164.144 72.4865 163.448 72.4865 162.368ZM79.7559 164.132C79.3479 164.132 78.9999 163.796 78.9999 163.4C78.9999 162.992 79.3479 162.644 79.7559 162.644C80.1639 162.644 80.5119 162.992 80.5119 163.4C80.5119 163.796 80.1639 164.132 79.7559 164.132Z" fill="#E7E0E4" fill-opacity="0.65"/>
<defs>
<linearGradient id="paint0_linear_170_19" x1="300.616" y1="8.0394" x2="26.0563" y2="126.597" gradientUnits="userSpaceOnUse">
<stop stop-color="#F5F5F5" stop-opacity="0.05"/>
<stop offset="0.5" stop-color="#F5F5F5" stop-opacity="0.065"/>
<stop offset="1" stop-color="#F5F5F5" stop-opacity="0.05"/>
</linearGradient>
</defs>
</svg>
