<svg width="420" height="192" viewBox="0 0 420 192" fill="none" xmlns="http://www.w3.org/2000/svg">
<rect width="420" height="192" rx="16" fill="url(#paint0_linear_171_32)"/>
<rect x="28" y="24" width="364" height="64" rx="8" fill="white" fill-opacity="0.08"/>
<rect x="44" y="36" width="72" height="6" rx="3" fill="#E7E0E4" fill-opacity="0.6"/>
<rect x="44" y="50" width="332" height="4" rx="2" fill="#E7E0E4" fill-opacity="0.35"/>
<rect x="44" y="60" width="284" height="4" rx="2" fill="#E7E0E4" fill-opacity="0.35"/>
<rect x="44" y="70" width="221" height="4" rx="2" fill="#E7E0E4" fill-opacity="0.35"/>
<path d="M33.46 119.168C30.478 119.168 28.546 117.096 28.546 113.89C28.546 110.712 30.548 108.598 33.544 108.598C35.966 108.598 37.772 110.012 38.122 112.21H36.232C35.882 111.02 34.86 110.32 33.502 110.32C31.612 110.32 30.422 111.692 30.422 113.876C30.422 116.046 31.626 117.446 33.502 117.446C34.888 117.446 35.952 116.718 36.288 115.584H38.15C37.758 117.74 35.882 119.168 33.46 119.168ZM50.215 113.876C50.215 116.984 48.171 119.168 45.231 119.168C42.305 119.168 40.289 116.998 40.289 113.876C40.289 110.768 42.319 108.584 45.245 108.584C48.171 108.584 50.215 110.754 50.215 113.876ZM48.325 113.876C48.325 111.692 47.121 110.306 45.245 110.306C43.369 110.306 42.165 111.692 42.165 113.876C42.165 116.06 43.369 117.446 45.245 117.446C47.121 117.446 48.325 116.032 48.325 113.876ZM54.7669 119H53.0029V108.766H54.7809L59.5829 116.018V108.766H61.3469V119H59.5829L54.7669 111.748V119ZM63.8363 110.418V108.766H71.6203V110.418H68.6243V119H66.8323V110.418H63.8363ZM80.4661 119H74.1101V108.766H80.4661V110.418H75.9021V113.05H79.9901V114.632H75.9021V117.348H80.4661V119ZM85.2929 119H83.5289V108.766H85.3069L90.1089 116.018V108.766H91.8729V119H90.1089L85.2929 111.748V119ZM94.3623 110.418V108.766H102.146V110.418H99.1503V119H97.3583V110.418H94.3623ZM108.942 111.622C108.942 109.83 110.426 108.584 112.582 108.584C114.654 108.584 115.97 109.732 116.026 111.58H114.234C114.192 110.698 113.562 110.18 112.554 110.18C111.448 110.18 110.734 110.712 110.734 111.566C110.734 112.294 111.126 112.7 111.98 112.896L113.59 113.246C115.34 113.624 116.194 114.52 116.194 116.046C116.194 117.95 114.71 119.182 112.456 119.182C110.272 119.182 108.844 118.02 108.802 116.186H110.594C110.608 117.054 111.308 117.572 112.456 117.572C113.646 117.572 114.402 117.054 114.402 116.2C114.402 115.514 114.052 115.108 113.212 114.926L111.588 114.562C109.852 114.184 108.942 113.19 108.942 111.622ZM117.902 110.418V108.766H125.686V110.418H122.69V119H120.898V110.418H117.902ZM129.968 119H128.176V108.766H132.082C134.406 108.766 135.764 109.942 135.764 111.958C135.764 113.33 135.12 114.31 133.916 114.8L135.862 119H133.902L132.166 115.178H129.968V119ZM129.968 110.362V113.596H132.082C133.216 113.596 133.888 112.994 133.888 111.958C133.888 110.936 133.216 110.362 132.082 110.362H129.968ZM138.577 115.262V108.766H140.369V115.15C140.369 116.62 141.167 117.432 142.623 117.432C144.079 117.432 144.891 116.606 144.891 115.15V108.766H146.683V115.262C146.683 117.656 145.115 119.168 142.623 119.168C140.145 119.168 138.577 117.67 138.577 115.262ZM154.334 119.168C151.352 119.168 149.42 117.096 149.42 113.89C149.42 110.712 151.422 108.598 154.418 108.598C156.84 108.598 158.646 110.012 158.996 112.21H157.106C156.756 111.02 155.734 110.32 154.376 110.32C152.486 110.32 151.296 111.692 151.296 113.876C151.296 116.046 152.5 117.446 154.376 117.446C155.762 117.446 156.826 116.718 157.162 115.584H159.024C158.632 117.74 156.756 119.168 154.334 119.168ZM160.294 110.418V108.766H168.078V110.418H165.082V119H163.29V110.418H160.294ZM170.498 115.262V108.766H172.29V115.15C172.29 116.62 173.088 117.432 174.544 117.432C176 117.432 176.812 116.606 176.812 115.15V108.766H178.604V115.262C178.604 117.656 177.036 119.168 174.544 119.168C172.066 119.168 170.498 117.67 170.498 115.262ZM183.72 119H181.928V108.766H185.834C188.158 108.766 189.516 109.942 189.516 111.958C189.516 113.33 188.872 114.31 187.668 114.8L189.614 119H187.654L185.918 115.178H183.72V119ZM183.72 110.362V113.596H185.834C186.968 113.596 187.64 112.994 187.64 111.958C187.64 110.936 186.968 110.362 185.834 110.362H183.72ZM198.783 119H192.427V108.766H198.783V110.418H194.219V113.05H198.307V114.632H194.219V117.348H198.783V119Z" fill="#E7E0E4"/>
<path d="M32.548 146.132C30.148 146.132 28.516 144.344 28.516 141.704C28.516 139.064 30.172 137.264 32.596 137.264C34.444 137.264 35.896 138.38 36.244 140.084H35.32C34.96 138.848 33.904 138.092 32.56 138.092C30.676 138.092 29.416 139.532 29.416 141.704C29.416 143.864 30.676 145.304 32.56 145.304C33.916 145.304 34.996 144.572 35.368 143.42H36.292C35.896 145.04 34.396 146.132 32.548 146.132ZM38.1582 143.096C38.1582 141.32 39.4062 140.036 41.1102 140.036C42.8142 140.036 44.0622 141.32 44.0622 143.096C44.0622 144.86 42.8142 146.144 41.1102 146.144C39.4062 146.144 38.1582 144.86 38.1582 143.096ZM38.9982 143.084C38.9982 144.452 39.8622 145.4 41.1102 145.4C42.3462 145.4 43.2222 144.452 43.2222 143.084C43.2222 141.74 42.3462 140.78 41.1102 140.78C39.8622 140.78 38.9982 141.74 38.9982 143.084ZM47.1745 146H46.3465V140.192H47.0665L47.1865 141.2C47.5705 140.456 48.3385 140.036 49.1785 140.036C50.7745 140.036 51.4345 140.984 51.4345 142.448V146H50.6065V142.628C50.6065 141.272 49.9945 140.792 49.0345 140.792C47.8465 140.792 47.1745 141.656 47.1745 142.964V146ZM55.3768 146H54.5608V140.888H53.3968V140.192H54.5608V138.356H55.3768V140.192H56.5408V140.888H55.3768V146ZM60.9564 146.144C59.2524 146.144 58.1124 144.92 58.1124 143.096C58.1124 141.284 59.2404 140.036 60.8964 140.036C62.4684 140.036 63.5364 141.152 63.5364 142.796V143.204H58.9164C58.9764 144.62 59.7204 145.436 60.9684 145.436C61.9164 145.436 62.5284 145.028 62.7444 144.26H63.5364C63.2244 145.484 62.3244 146.144 60.9564 146.144ZM60.8964 140.744C59.8044 140.744 59.0844 141.464 58.9404 142.604H62.7084C62.7084 141.488 61.9884 140.744 60.8964 140.744ZM66.6482 146H65.8202V140.192H66.5402L66.6602 141.2C67.0442 140.456 67.8122 140.036 68.6522 140.036C70.2482 140.036 70.9082 140.984 70.9082 142.448V146H70.0802V142.628C70.0802 141.272 69.4682 140.792 68.5082 140.792C67.3202 140.792 66.6482 141.656 66.6482 142.964V146ZM74.8505 146H74.0345V140.888H72.8705V140.192H74.0345V138.356H74.8505V140.192H76.0145V140.888H74.8505V146ZM83.0609 146H82.3409V137.252H83.1689V141.32C83.5769 140.468 84.3689 140.036 85.3529 140.036C87.0449 140.036 88.0289 141.356 88.0289 143.108C88.0289 144.848 87.0209 146.144 85.3289 146.144C84.3569 146.144 83.5529 145.712 83.1449 144.812L83.0609 146ZM83.1809 143.084C83.1809 144.428 83.9249 145.388 85.1969 145.388C86.4569 145.388 87.1889 144.428 87.1889 143.084C87.1889 141.752 86.4569 140.78 85.1969 140.78C83.9249 140.78 83.1809 141.752 83.1809 143.084ZM91.1727 146H90.3447V137.252H91.1727V146ZM93.4857 143.096C93.4857 141.32 94.7337 140.036 96.4377 140.036C98.1417 140.036 99.3897 141.32 99.3897 143.096C99.3897 144.86 98.1417 146.144 96.4377 146.144C94.7337 146.144 93.4857 144.86 93.4857 143.096ZM94.3257 143.084C94.3257 144.452 95.1897 145.4 96.4377 145.4C97.6737 145.4 98.5497 144.452 98.5497 143.084C98.5497 141.74 97.6737 140.78 96.4377 140.78C95.1897 140.78 94.3257 141.74 94.3257 143.084ZM101.266 143.108C101.266 141.284 102.382 140.036 104.074 140.036C105.418 140.036 106.402 140.816 106.63 142.016H105.802C105.586 141.212 104.89 140.768 104.086 140.768C102.91 140.768 102.082 141.668 102.082 143.096C102.082 144.476 102.85 145.4 104.026 145.4C104.89 145.4 105.586 144.92 105.814 144.176H106.654C106.378 145.364 105.346 146.144 104.026 146.144C102.382 146.144 101.266 144.932 101.266 143.108ZM109.732 146H108.904V137.252H109.732V143.192L112.612 140.192H113.656L111.424 142.508L113.668 146H112.708L110.86 143.096L109.732 144.26V146ZM115.207 144.368H115.999C115.999 145.04 116.503 145.46 117.319 145.46C118.219 145.46 118.747 145.076 118.747 144.452C118.747 143.972 118.507 143.696 117.823 143.528L116.827 143.276C115.819 143.024 115.327 142.496 115.327 141.704C115.327 140.684 116.179 140.036 117.427 140.036C118.651 140.036 119.443 140.708 119.479 141.788H118.675C118.651 141.116 118.183 140.72 117.403 140.72C116.587 140.72 116.131 141.068 116.131 141.692C116.131 142.136 116.443 142.448 117.079 142.604L118.075 142.856C119.083 143.108 119.539 143.576 119.539 144.416C119.539 145.46 118.651 146.144 117.331 146.144C116.023 146.144 115.207 145.448 115.207 144.368ZM125.659 144.368H126.451C126.451 145.04 126.955 145.46 127.771 145.46C128.671 145.46 129.199 145.076 129.199 144.452C129.199 143.972 128.959 143.696 128.275 143.528L127.279 143.276C126.271 143.024 125.779 142.496 125.779 141.704C125.779 140.684 126.631 140.036 127.879 140.036C129.103 140.036 129.895 140.708 129.931 141.788H129.127C129.103 141.116 128.635 140.72 127.855 140.72C127.039 140.72 126.583 141.068 126.583 141.692C126.583 142.136 126.895 142.448 127.531 142.604L128.527 142.856C129.535 143.108 129.991 143.576 129.991 144.416C129.991 145.46 129.103 146.144 127.783 146.144C126.475 146.144 125.659 145.448 125.659 144.368ZM133.646 146H132.83V140.888H131.666V140.192H132.83V138.356H133.646V140.192H134.81V140.888H133.646V146ZM139.884 140.12V140.864H139.428C138.36 140.864 137.676 141.584 137.676 142.688V146H136.848V140.192H137.628L137.688 141.092C137.916 140.468 138.528 140.06 139.344 140.06C139.524 140.06 139.68 140.072 139.884 140.12ZM146.025 140.192H146.853V146H146.133L146.025 145.016C145.701 145.688 144.897 146.144 143.985 146.144C142.617 146.144 141.873 145.208 141.873 143.792V140.18H142.713V143.528C142.713 144.908 143.325 145.4 144.249 145.4C145.365 145.4 146.025 144.656 146.025 143.276V140.192ZM149.012 143.108C149.012 141.284 150.128 140.036 151.82 140.036C153.164 140.036 154.148 140.816 154.376 142.016H153.548C153.332 141.212 152.636 140.768 151.832 140.768C150.656 140.768 149.828 141.668 149.828 143.096C149.828 144.476 150.596 145.4 151.772 145.4C152.636 145.4 153.332 144.92 153.56 144.176H154.4C154.124 145.364 153.092 146.144 151.772 146.144C150.128 146.144 149.012 144.932 149.012 143.108ZM157.947 146H157.131V140.888H155.967V140.192H157.131V138.356H157.947V140.192H159.111V140.888H157.947V146ZM165.229 140.192H166.057V146H165.337L165.229 145.016C164.905 145.688 164.101 146.144 163.189 146.144C161.821 146.144 161.077 145.208 161.077 143.792V140.18H161.917V143.528C161.917 144.908 162.529 145.4 163.453 145.4C164.569 145.4 165.229 144.656 165.229 143.276V140.192ZM171.778 140.12V140.864H171.322C170.254 140.864 169.57 141.584 169.57 142.688V146H168.742V140.192H169.522L169.582 141.092C169.81 140.468 170.422 140.06 171.238 140.06C171.418 140.06 171.574 140.072 171.778 140.12ZM176.052 146.144C174.348 146.144 173.208 144.92 173.208 143.096C173.208 141.284 174.336 140.036 175.992 140.036C177.564 140.036 178.632 141.152 178.632 142.796V143.204H174.012C174.072 144.62 174.816 145.436 176.064 145.436C177.012 145.436 177.624 145.028 177.84 144.26H178.632C178.32 145.484 177.42 146.144 176.052 146.144ZM175.992 140.744C174.9 140.744 174.18 141.464 174.036 142.604H177.804C177.804 141.488 177.084 140.744 175.992 140.744ZM183.196 146.144C181.504 146.144 180.508 144.848 180.508 143.108C180.508 141.356 181.504 140.036 183.232 140.036C184.192 140.036 184.96 140.456 185.368 141.296V137.252H186.196V146H185.476L185.392 144.812C184.984 145.712 184.168 146.144 183.196 146.144ZM183.34 145.388C184.612 145.388 185.356 144.428 185.356 143.084C185.356 141.752 184.612 140.78 183.34 140.78C182.08 140.78 181.348 141.752 181.348 143.084C181.348 144.428 182.08 145.388 183.34 145.388ZM194.504 146H193.688V140.888H192.524V140.192H193.688V138.356H194.504V140.192H195.668V140.888H194.504V146ZM197.239 143.096C197.239 141.32 198.487 140.036 200.191 140.036C201.895 140.036 203.143 141.32 203.143 143.096C203.143 144.86 201.895 146.144 200.191 146.144C198.487 146.144 197.239 144.86 197.239 143.096ZM198.079 143.084C198.079 144.452 198.943 145.4 200.191 145.4C201.427 145.4 202.303 144.452 202.303 143.084C202.303 141.74 201.427 140.78 200.191 140.78C198.943 140.78 198.079 141.74 198.079 143.084ZM210.124 138.596C209.788 138.596 209.512 138.32 209.512 137.984C209.512 137.648 209.788 137.36 210.124 137.36C210.46 137.36 210.748 137.648 210.748 137.984C210.748 138.32 210.46 138.596 210.124 138.596ZM209.716 146V140.192H210.544V146H209.716ZM214.058 146H213.23V140.192H213.95L214.046 141.02C214.334 140.408 214.982 140.036 215.798 140.036C216.71 140.036 217.394 140.516 217.67 141.272C217.934 140.516 218.642 140.036 219.578 140.036C220.838 140.036 221.666 140.852 221.666 142.196V146H220.862V142.364C220.862 141.368 220.31 140.78 219.422 140.78C218.45 140.78 217.874 141.512 217.874 142.412V146H217.058V142.352C217.058 141.368 216.494 140.792 215.618 140.792C214.646 140.792 214.058 141.512 214.058 142.4V146ZM224.292 148.532V140.192H225.012L225.096 141.368C225.504 140.468 226.32 140.036 227.292 140.036C228.972 140.036 229.98 141.32 229.98 143.072C229.98 144.824 229.008 146.144 227.292 146.144C226.308 146.144 225.528 145.724 225.12 144.884V148.532H224.292ZM225.132 143.096C225.132 144.428 225.876 145.4 227.148 145.4C228.408 145.4 229.14 144.428 229.14 143.096C229.14 141.752 228.408 140.792 227.148 140.792C225.876 140.792 225.132 141.752 225.132 143.096ZM235.296 140.12V140.864H234.84C233.772 140.864 233.088 141.584 233.088 142.688V146H232.26V140.192H233.04L233.1 141.092C233.328 140.468 233.94 140.06 234.756 140.06C234.936 140.06 235.092 140.072 235.296 140.12ZM236.726 143.096C236.726 141.32 237.974 140.036 239.678 140.036C241.382 140.036 242.63 141.32 242.63 143.096C242.63 144.86 241.382 146.144 239.678 146.144C237.974 146.144 236.726 144.86 236.726 143.096ZM237.566 143.084C237.566 144.452 238.43 145.4 239.678 145.4C240.914 145.4 241.79 144.452 241.79 143.084C241.79 141.74 240.914 140.78 239.678 140.78C238.43 140.78 237.566 141.74 237.566 143.084ZM246.276 146L243.9 140.192H244.788L246.288 143.936C246.444 144.356 246.6 144.752 246.708 145.136C246.816 144.74 246.972 144.356 247.14 143.936L248.664 140.192H249.516L247.104 146H246.276ZM253.63 146.144C251.926 146.144 250.786 144.92 250.786 143.096C250.786 141.284 251.914 140.036 253.57 140.036C255.142 140.036 256.21 141.152 256.21 142.796V143.204H251.59C251.65 144.62 252.394 145.436 253.642 145.436C254.59 145.436 255.202 145.028 255.418 144.26H256.21C255.898 145.484 254.998 146.144 253.63 146.144ZM253.57 140.744C252.478 140.744 251.758 141.464 251.614 142.604H255.382C255.382 141.488 254.662 140.744 253.57 140.744ZM265.818 140.12V140.864H265.362C264.294 140.864 263.61 141.584 263.61 142.688V146H262.782V140.192H263.562L263.622 141.092C263.85 140.468 264.462 140.06 265.278 140.06C265.458 140.06 265.614 140.072 265.818 140.12ZM270.092 146.144C268.388 146.144 267.248 144.92 267.248 143.096C267.248 141.284 268.376 140.036 270.032 140.036C271.604 140.036 272.672 141.152 272.672 142.796V143.204H268.052C268.112 144.62 268.856 145.436 270.104 145.436C271.052 145.436 271.664 145.028 271.88 144.26H272.672C272.36 145.484 271.46 146.144 270.092 146.144ZM270.032 140.744C268.94 140.744 268.22 141.464 268.076 142.604H271.844C271.844 141.488 271.124 140.744 270.032 140.744ZM276.566 146.144C275.33 146.144 274.598 145.448 274.598 144.428C274.598 143.36 275.414 142.688 276.77 142.58L278.69 142.424V142.232C278.69 141.092 278.006 140.732 277.154 140.732C276.146 140.732 275.546 141.188 275.546 141.968H274.79C274.79 140.792 275.75 140.036 277.178 140.036C278.522 140.036 279.506 140.708 279.506 142.244V146H278.81L278.702 144.98C278.342 145.712 277.55 146.144 276.566 146.144ZM276.758 145.472C277.982 145.472 278.69 144.62 278.69 143.36V143.048L276.974 143.18C275.882 143.276 275.438 143.756 275.438 144.404C275.438 145.112 275.966 145.472 276.758 145.472ZM284.407 146.144C282.715 146.144 281.719 144.848 281.719 143.108C281.719 141.356 282.715 140.036 284.443 140.036C285.403 140.036 286.171 140.456 286.579 141.296V137.252H287.407V146H286.687L286.603 144.812C286.195 145.712 285.379 146.144 284.407 146.144ZM284.551 145.388C285.823 145.388 286.567 144.428 286.567 143.084C286.567 141.752 285.823 140.78 284.551 140.78C283.291 140.78 282.559 141.752 282.559 143.084C282.559 144.428 283.291 145.388 284.551 145.388ZM291.763 146.144C290.527 146.144 289.795 145.448 289.795 144.428C289.795 143.36 290.611 142.688 291.967 142.58L293.887 142.424V142.232C293.887 141.092 293.203 140.732 292.351 140.732C291.343 140.732 290.743 141.188 290.743 141.968H289.987C289.987 140.792 290.947 140.036 292.375 140.036C293.719 140.036 294.703 140.708 294.703 142.244V146H294.007L293.899 144.98C293.539 145.712 292.747 146.144 291.763 146.144ZM291.955 145.472C293.179 145.472 293.887 144.62 293.887 143.36V143.048L292.171 143.18C291.079 143.276 290.635 143.756 290.635 144.404C290.635 145.112 291.163 145.472 291.955 145.472ZM298.045 146H297.325V137.252H298.153V141.32C298.561 140.468 299.353 140.036 300.337 140.036C302.029 140.036 303.013 141.356 303.013 143.108C303.013 144.848 302.005 146.144 300.313 146.144C299.341 146.144 298.537 145.712 298.129 144.812L298.045 146ZM298.165 143.084C298.165 144.428 298.909 145.388 300.181 145.388C301.441 145.388 302.173 144.428 302.173 143.084C302.173 141.752 301.441 140.78 300.181 140.78C298.909 140.78 298.165 141.752 298.165 143.084ZM305.7 138.596C305.364 138.596 305.088 138.32 305.088 137.984C305.088 137.648 305.364 137.36 305.7 137.36C306.036 137.36 306.324 137.648 306.324 137.984C306.324 138.32 306.036 138.596 305.7 138.596ZM305.292 146V140.192H306.12V146H305.292ZM309.671 146H308.843V137.252H309.671V146ZM312.8 138.596C312.464 138.596 312.188 138.32 312.188 137.984C312.188 137.648 312.464 137.36 312.8 137.36C313.136 137.36 313.424 137.648 313.424 137.984C313.424 138.32 313.136 138.596 312.8 138.596ZM312.392 146V140.192H313.22V146H312.392ZM317.239 146H316.423V140.888H315.259V140.192H316.423V138.356H317.239V140.192H318.403V140.888H317.239V146ZM319.853 148.532V147.848H320.489C320.993 147.848 321.497 147.812 321.785 147.032L322.037 146.348L319.685 140.192H320.561L322.433 145.256L324.269 140.192H325.121L322.457 147.332C322.121 148.244 321.557 148.616 320.729 148.616C320.381 148.616 320.117 148.592 319.853 148.532ZM333.006 146.144C331.77 146.144 331.038 145.448 331.038 144.428C331.038 143.36 331.854 142.688 333.21 142.58L335.13 142.424V142.232C335.13 141.092 334.446 140.732 333.594 140.732C332.586 140.732 331.986 141.188 331.986 141.968H331.23C331.23 140.792 332.19 140.036 333.618 140.036C334.962 140.036 335.946 140.708 335.946 142.244V146H335.25L335.142 144.98C334.782 145.712 333.99 146.144 333.006 146.144ZM333.198 145.472C334.422 145.472 335.13 144.62 335.13 143.36V143.048L333.414 143.18C332.322 143.276 331.878 143.756 331.878 144.404C331.878 145.112 332.406 145.472 333.198 145.472ZM339.395 146H338.567V140.192H339.287L339.407 141.2C339.791 140.456 340.559 140.036 341.399 140.036C342.995 140.036 343.655 140.984 343.655 142.448V146H342.827V142.628C342.827 141.272 342.215 140.792 341.255 140.792C340.067 140.792 339.395 141.656 339.395 142.964V146ZM348.545 146.144C346.853 146.144 345.857 144.848 345.857 143.108C345.857 141.356 346.853 140.036 348.581 140.036C349.541 140.036 350.309 140.456 350.717 141.296V137.252H351.545V146H350.825L350.741 144.812C350.333 145.712 349.517 146.144 348.545 146.144ZM348.689 145.388C349.961 145.388 350.705 144.428 350.705 143.084C350.705 141.752 349.961 140.78 348.689 140.78C347.429 140.78 346.697 141.752 346.697 143.084C346.697 144.428 347.429 145.388 348.689 145.388ZM358.125 142.928C358.125 141.344 359.145 140.036 360.849 140.036C361.857 140.036 362.625 140.504 362.997 141.356L363.081 140.192H363.801V145.82C363.801 147.548 362.697 148.676 360.993 148.676C359.505 148.676 358.461 147.836 358.233 146.432H359.061C359.241 147.368 359.961 147.92 361.005 147.92C362.193 147.92 362.985 147.116 362.985 145.904V144.524C362.589 145.34 361.785 145.82 360.789 145.82C359.133 145.82 358.125 144.512 358.125 142.928ZM358.953 142.916C358.953 144.104 359.685 145.076 360.909 145.076C362.169 145.076 362.913 144.164 362.913 142.916C362.913 141.68 362.193 140.768 360.921 140.768C359.673 140.768 358.953 141.74 358.953 142.916ZM370.569 140.192H371.397V146H370.677L370.569 145.016C370.245 145.688 369.441 146.144 368.529 146.144C367.161 146.144 366.417 145.208 366.417 143.792V140.18H367.257V143.528C367.257 144.908 367.869 145.4 368.793 145.4C369.909 145.4 370.569 144.656 370.569 143.276V140.192ZM374.49 138.596C374.154 138.596 373.878 138.32 373.878 137.984C373.878 137.648 374.154 137.36 374.49 137.36C374.826 137.36 375.114 137.648 375.114 137.984C375.114 138.32 374.826 138.596 374.49 138.596ZM374.082 146V140.192H374.91V146H374.082ZM379.877 146.144C378.185 146.144 377.189 144.848 377.189 143.108C377.189 141.356 378.185 140.036 379.913 140.036C380.873 140.036 381.641 140.456 382.049 141.296V137.252H382.877V146H382.157L382.073 144.812C381.665 145.712 380.849 146.144 379.877 146.144ZM380.021 145.388C381.293 145.388 382.037 144.428 382.037 143.084C382.037 141.752 381.293 140.78 380.021 140.78C378.761 140.78 378.029 141.752 378.029 143.084C378.029 144.428 378.761 145.388 380.021 145.388ZM388 146.144C386.296 146.144 385.156 144.92 385.156 143.096C385.156 141.284 386.284 140.036 387.94 140.036C389.512 140.036 390.58 141.152 390.58 142.796V143.204H385.96C386.02 144.62 386.764 145.436 388.012 145.436C388.96 145.436 389.572 145.028 389.788 144.26H390.58C390.268 145.484 389.368 146.144 388 146.144ZM387.94 140.744C386.848 140.744 386.128 141.464 385.984 142.604H389.752C389.752 141.488 389.032 140.744 387.94 140.744ZM32.944 158.192H33.772V164H33.052L32.944 163.016C32.62 163.688 31.816 164.144 30.904 164.144C29.536 164.144 28.792 163.208 28.792 161.792V158.18H29.632V161.528C29.632 162.908 30.244 163.4 31.168 163.4C32.284 163.4 32.944 162.656 32.944 161.276V158.192ZM35.8476 162.368H36.6396C36.6396 163.04 37.1436 163.46 37.9596 163.46C38.8596 163.46 39.3876 163.076 39.3876 162.452C39.3876 161.972 39.1476 161.696 38.4636 161.528L37.4676 161.276C36.4596 161.024 35.9676 160.496 35.9676 159.704C35.9676 158.684 36.8196 158.036 38.0676 158.036C39.2916 158.036 40.0836 158.708 40.1196 159.788H39.3156C39.2916 159.116 38.8236 158.72 38.0436 158.72C37.2276 158.72 36.7716 159.068 36.7716 159.692C36.7716 160.136 37.0836 160.448 37.7196 160.604L38.7156 160.856C39.7236 161.108 40.1796 161.576 40.1796 162.416C40.1796 163.46 39.2916 164.144 37.9716 164.144C36.6636 164.144 35.8476 163.448 35.8476 162.368ZM44.9388 164.144C43.2348 164.144 42.0948 162.92 42.0948 161.096C42.0948 159.284 43.2228 158.036 44.8788 158.036C46.4508 158.036 47.5188 159.152 47.5188 160.796V161.204H42.8988C42.9588 162.62 43.7028 163.436 44.9508 163.436C45.8988 163.436 46.5108 163.028 46.7268 162.26H47.5188C47.2068 163.484 46.3068 164.144 44.9388 164.144ZM44.8788 158.744C43.7868 158.744 43.0668 159.464 42.9228 160.604H46.6908C46.6908 159.488 45.9708 158.744 44.8788 158.744ZM52.8386 158.12V158.864H52.3826C51.3146 158.864 50.6306 159.584 50.6306 160.688V164H49.8026V158.192H50.5826L50.6426 159.092C50.8706 158.468 51.4826 158.06 52.2986 158.06C52.4786 158.06 52.6346 158.072 52.8386 158.12ZM60.8554 164.144C59.6194 164.144 58.8874 163.448 58.8874 162.428C58.8874 161.36 59.7034 160.688 61.0594 160.58L62.9794 160.424V160.232C62.9794 159.092 62.2954 158.732 61.4434 158.732C60.4354 158.732 59.8354 159.188 59.8354 159.968H59.0794C59.0794 158.792 60.0394 158.036 61.4674 158.036C62.8114 158.036 63.7954 158.708 63.7954 160.244V164H63.0994L62.9914 162.98C62.6314 163.712 61.8394 164.144 60.8554 164.144ZM61.0474 163.472C62.2714 163.472 62.9794 162.62 62.9794 161.36V161.048L61.2634 161.18C60.1714 161.276 59.7274 161.756 59.7274 162.404C59.7274 163.112 60.2554 163.472 61.0474 163.472ZM67.6435 164H66.8275V158.888H65.6635V158.192H66.8275V156.356H67.6435V158.192H68.8075V158.888H67.6435V164ZM72.2246 164H71.4086V158.888H70.2446V158.192H71.4086V156.356H72.2246V158.192H73.3886V158.888H72.2246V164ZM77.8042 164.144C76.1002 164.144 74.9602 162.92 74.9602 161.096C74.9602 159.284 76.0882 158.036 77.7442 158.036C79.3162 158.036 80.3842 159.152 80.3842 160.796V161.204H75.7642C75.8242 162.62 76.5682 163.436 77.8162 163.436C78.7642 163.436 79.3762 163.028 79.5922 162.26H80.3842C80.0722 163.484 79.1722 164.144 77.8042 164.144ZM77.7442 158.744C76.6522 158.744 75.9322 159.464 75.7882 160.604H79.5562C79.5562 159.488 78.8362 158.744 77.7442 158.744ZM83.4961 164H82.6681V158.192H83.3881L83.5081 159.2C83.8921 158.456 84.6601 158.036 85.5001 158.036C87.0961 158.036 87.7561 158.984 87.7561 160.448V164H86.9281V160.628C86.9281 159.272 86.3161 158.792 85.3561 158.792C84.1681 158.792 83.4961 159.656 83.4961 160.964V164ZM91.6983 164H90.8823V158.888H89.7183V158.192H90.8823V156.356H91.6983V158.192H92.8623V158.888H91.6983V164ZM95.3086 156.596C94.9726 156.596 94.6966 156.32 94.6966 155.984C94.6966 155.648 94.9726 155.36 95.3086 155.36C95.6446 155.36 95.9326 155.648 95.9326 155.984C95.9326 156.32 95.6446 156.596 95.3086 156.596ZM94.9006 164V158.192H95.7286V164H94.9006ZM98.0072 161.096C98.0072 159.32 99.2552 158.036 100.959 158.036C102.663 158.036 103.911 159.32 103.911 161.096C103.911 162.86 102.663 164.144 100.959 164.144C99.2552 164.144 98.0072 162.86 98.0072 161.096ZM98.8472 161.084C98.8472 162.452 99.7112 163.4 100.959 163.4C102.195 163.4 103.071 162.452 103.071 161.084C103.071 159.74 102.195 158.78 100.959 158.78C99.7112 158.78 98.8472 159.74 98.8472 161.084ZM107.024 164H106.196V158.192H106.916L107.036 159.2C107.42 158.456 108.188 158.036 109.028 158.036C110.624 158.036 111.284 158.984 111.284 160.448V164H110.456V160.628C110.456 159.272 109.844 158.792 108.884 158.792C107.696 158.792 107.024 159.656 107.024 160.964V164ZM114.602 164.132C114.194 164.132 113.846 163.796 113.846 163.4C113.846 162.992 114.194 162.644 114.602 162.644C115.01 162.644 115.358 162.992 115.358 163.4C115.358 163.796 115.01 164.132 114.602 164.132Z" fill="#E7E0E4" fill-opacity="0.65"/>
<defs>
<linearGradient id="paint0_linear_171_32" x1="300.616" y1="8.0394" x2="26.0563" y2="126.597" gradientUnits="userSpaceOnUse">
<stop stop-color="#F5F5F5" stop-opacity="0.05"/>
<stop offset="0.5" stop-color="#F5F5F5" stop-opacity="0.065"/>
<stop offset="1" stop-color="#F5F5F5" stop-opacity="0.05"/>
</linearGradient>
</defs>
</svg>
